<svg width="30" height="30" viewBox="0 0 30 30" fill="none" xmlns="http://www.w3.org/2000/svg">
<g clip-path="url(#clip0_30_181)">
<path d="M15 0.366211C16.377 0.366211 17.7051 0.541992 18.9844 0.893555C20.2637 1.24512 21.4551 1.75293 22.5586 2.41699C23.6621 3.08105 24.6729 3.8623 25.5908 4.76074C26.5088 5.65918 27.2949 6.66992 27.9492 7.79297C28.6035 8.91602 29.1064 10.1123 29.458 11.3818C29.8096 12.6514 29.9902 13.9795 30 15.3662C30 16.9775 29.7559 18.5303 29.2676 20.0244C28.7793 21.5186 28.0811 22.8906 27.1729 24.1406C26.2646 25.3906 25.1855 26.4844 23.9355 27.4219C22.6855 28.3594 21.2891 29.0869 19.7461 29.6045C19.7168 29.6143 19.6729 29.6191 19.6143 29.6191C19.5557 29.6191 19.5117 29.624 19.4824 29.6338C19.248 29.6338 19.0625 29.5654 18.9258 29.4287C18.7891 29.292 18.7207 29.1113 18.7207 28.8867V26.8359C18.7207 26.1621 18.7256 25.4736 18.7354 24.7705C18.7354 24.2725 18.6621 23.7695 18.5156 23.2617C18.3691 22.7539 18.1055 22.3291 17.7246 21.9873C18.8574 21.8604 19.8486 21.6309 20.6982 21.2988C21.5479 20.9668 22.2607 20.498 22.8369 19.8926C23.4131 19.2871 23.8428 18.5547 24.126 17.6953C24.4092 16.8359 24.5557 15.8008 24.5654 14.5898C24.5654 13.8281 24.4385 13.1104 24.1846 12.4365C23.9307 11.7627 23.5449 11.1377 23.0273 10.5615C23.1348 10.2881 23.2129 10.0049 23.2617 9.71191C23.3105 9.41895 23.335 9.12598 23.335 8.83301C23.335 8.45215 23.2959 8.07617 23.2178 7.70508C23.1396 7.33398 23.0273 6.96289 22.8809 6.5918C22.832 6.57227 22.7783 6.5625 22.7197 6.5625C22.6611 6.5625 22.6074 6.5625 22.5586 6.5625C22.2461 6.5625 21.9189 6.61133 21.5771 6.70898C21.2354 6.80664 20.8984 6.93359 20.5664 7.08984C20.2344 7.24609 19.9072 7.41699 19.585 7.60254C19.2627 7.78809 18.9844 7.96387 18.75 8.12988C17.5293 7.78809 16.2793 7.61719 15 7.61719C13.7207 7.61719 12.4707 7.78809 11.25 8.12988C11.0059 7.96387 10.7275 7.78809 10.415 7.60254C10.1025 7.41699 9.78027 7.25098 9.44824 7.10449C9.11621 6.95801 8.77441 6.83105 8.42285 6.72363C8.07129 6.61621 7.74414 6.5625 7.44141 6.5625H7.28027C7.22168 6.5625 7.16797 6.57227 7.11914 6.5918C6.98242 6.95312 6.875 7.31934 6.79688 7.69043C6.71875 8.06152 6.6748 8.44238 6.66504 8.83301C6.66504 9.12598 6.68945 9.41895 6.73828 9.71191C6.78711 10.0049 6.86523 10.2881 6.97266 10.5615C6.45508 11.1279 6.06934 11.748 5.81543 12.4219C5.56152 13.0957 5.43457 13.8184 5.43457 14.5898C5.43457 15.7812 5.57617 16.8115 5.85938 17.6807C6.14258 18.5498 6.57227 19.2822 7.14844 19.8779C7.72461 20.4736 8.4375 20.9473 9.28711 21.2988C10.1367 21.6504 11.1279 21.8848 12.2607 22.002C11.9775 22.2559 11.7627 22.5586 11.6162 22.9102C11.4697 23.2617 11.3672 23.6279 11.3086 24.0088C11.0449 24.1357 10.7666 24.2334 10.4736 24.3018C10.1807 24.3701 9.8877 24.4043 9.59473 24.4043C8.96973 24.4043 8.45215 24.2578 8.04199 23.9648C7.63184 23.6719 7.26562 23.2715 6.94336 22.7637C6.82617 22.5781 6.68457 22.3926 6.51855 22.207C6.35254 22.0215 6.17188 21.8555 5.97656 21.709C5.78125 21.5625 5.57129 21.4453 5.34668 21.3574C5.12207 21.2695 4.8877 21.2207 4.64355 21.2109H4.46777C4.38965 21.2109 4.31641 21.2256 4.24805 21.2549C4.17969 21.2842 4.11133 21.3135 4.04297 21.3428C3.97461 21.3721 3.94531 21.4209 3.95508 21.4893C3.95508 21.6064 4.02344 21.7188 4.16016 21.8262C4.29688 21.9336 4.40918 22.0215 4.49707 22.0898L4.54102 22.1191C4.75586 22.2852 4.94141 22.4414 5.09766 22.5879C5.25391 22.7344 5.40039 22.8955 5.53711 23.0713C5.67383 23.2471 5.78613 23.4326 5.87402 23.6279C5.96191 23.8232 6.07422 24.0527 6.21094 24.3164C6.54297 25.0781 7.00684 25.6299 7.60254 25.9717C8.19824 26.3135 8.91602 26.4893 9.75586 26.499C10.0098 26.499 10.2637 26.4844 10.5176 26.4551C10.7715 26.4258 11.0254 26.3818 11.2793 26.3232V28.8721C11.2793 29.1064 11.2109 29.292 11.0742 29.4287C10.9375 29.5654 10.7471 29.6338 10.5029 29.6338H10.3857C10.3369 29.6338 10.293 29.624 10.2539 29.6045C8.7207 29.1064 7.32422 28.3887 6.06445 27.4512C4.80469 26.5137 3.72559 25.415 2.82715 24.1553C1.92871 22.8955 1.23535 21.5186 0.74707 20.0244C0.258789 18.5303 0.00976562 16.9775 0 15.3662C0 13.9893 0.175781 12.6611 0.527344 11.3818C0.878906 10.1025 1.38672 8.91113 2.05078 7.80762C2.71484 6.7041 3.49609 5.69336 4.39453 4.77539C5.29297 3.85742 6.30371 3.07129 7.42676 2.41699C8.5498 1.7627 9.74609 1.25977 11.0156 0.908203C12.2852 0.556641 13.6133 0.375977 15 0.366211Z" fill="black"/>
</g>
<defs>
<clipPath id="clip0_30_181">
<rect width="30" height="30" fill="white"/>
</clipPath>
</defs>
</svg>
