<svg width="88" height="35" viewBox="0 0 88 35" fill="none" xmlns="http://www.w3.org/2000/svg">
<g clip-path="url(#clip0_65_180)">
<path d="M27.6672 19.125C27.6672 22.5625 26.6812 25.375 24.6475 27.4375C22.3673 29.875 19.3476 31.125 15.65 31.125C12.0756 31.125 9.11751 29.875 6.65243 27.375C4.18735 24.875 2.95481 21.8125 2.95481 18.125C2.95481 14.5 4.18735 11.375 6.65243 8.875C9.11751 6.375 12.1372 5.125 15.65 5.125C17.4371 5.125 19.1627 5.4375 20.765 6.125C22.3673 6.75 23.6615 7.6875 24.7091 8.875L22.4289 11.1875C21.6894 10.25 20.7034 9.5625 19.5325 9C18.3616 8.5 17.0674 8.25 15.7116 8.25C13.0616 8.25 10.7814 9.1875 8.93262 11.0625C7.08382 12.9375 6.22104 15.3125 6.22104 18.1875C6.22104 21.0625 7.14544 23.375 8.93262 25.3125C10.7814 27.1875 13.0616 28.125 15.7116 28.125C18.1767 28.125 20.1487 27.4375 21.8127 26.0625C23.415 24.6875 24.3394 22.75 24.5859 20.3125H15.65V17.3125H27.4823C27.6056 17.875 27.6672 18.5 27.6672 19.125Z" fill="#111B21"/>
<path d="M34.0764 30.5H30.9334V13.5H33.9532V15.875H34.0764C34.5694 15.0625 35.309 14.375 36.295 13.8125C37.281 13.25 38.2671 13 39.2531 13C40.4856 13 41.5949 13.3125 42.5193 13.875C43.4437 14.4375 44.1216 15.25 44.553 16.25C45.9704 14.0625 47.8809 13 50.3459 13C52.2564 13 53.7971 13.625 54.8447 14.8125C55.8924 16 56.447 17.75 56.447 19.9375V30.5625H53.2424V20.375C53.2424 18.75 52.9343 17.625 52.3796 16.9375C51.825 16.25 50.8389 15.875 49.4832 15.875C48.2506 15.875 47.2646 16.375 46.4634 17.4375C45.6623 18.5 45.2309 19.6875 45.2309 21.125V30.5H42.0879V20.375C42.0879 18.75 41.7798 17.625 41.2251 16.9375C40.6705 16.25 39.6845 15.875 38.3287 15.875C37.0961 15.875 36.1101 16.375 35.309 17.4375C34.5078 18.5 34.0764 19.6875 34.0764 21.125V30.5Z" fill="#111B21"/>
<path d="M66.2457 12.9375C68.5875 12.9375 70.3747 13.5625 71.7305 14.8125C73.0863 16.0625 73.7642 17.8125 73.7642 20V30.5H70.7445V28.125H70.6212C69.327 30.0625 67.6015 31.0625 65.4445 31.0625C63.5957 31.0625 62.0551 30.5 60.8225 29.375C59.59 28.25 58.9737 26.875 58.9737 25.1875C58.9737 23.4375 59.6516 22.0625 60.9458 21C62.2399 19.9375 64.0271 19.4375 66.1841 19.4375C68.0329 19.4375 69.5735 19.8125 70.8061 20.5V19.75C70.8061 18.625 70.3747 17.6875 69.5119 16.9375C68.6491 16.1875 67.6015 15.75 66.4922 15.75C64.7666 15.75 63.3492 16.5 62.3016 18L59.5283 16.25C61.0074 14.0625 63.2876 12.9375 66.2457 12.9375ZM62.1783 25.3125C62.1783 26.125 62.5481 26.8125 63.226 27.375C63.9039 27.9375 64.705 28.1875 65.691 28.1875C66.9852 28.1875 68.2177 27.6875 69.2038 26.6875C70.2514 25.6875 70.7445 24.5 70.7445 23.1875C69.7584 22.375 68.4026 22 66.6154 22C65.3213 22 64.2736 22.3125 63.4108 22.9375C62.6097 23.625 62.1783 24.375 62.1783 25.3125Z" fill="#111B21"/>
<path d="M81.4059 7.6875C81.4059 8.3125 81.1594 8.8125 80.728 9.3125C80.2966 9.75 79.742 10 79.1257 10C78.5094 10 78.0164 9.75 77.5234 9.3125C77.092 8.875 76.8455 8.3125 76.8455 7.6875C76.8455 7.0625 77.092 6.5625 77.5234 6.0625C77.9548 5.625 78.5094 5.375 79.1257 5.375C79.742 5.375 80.235 5.625 80.728 6.0625C81.1594 6.5 81.4059 7.0625 81.4059 7.6875ZM80.728 13.5V30.5H77.585V13.5H80.728Z" fill="#111B21"/>
<path d="M88 5.6875V30.5H84.857V5.6875H88Z" fill="#111B21"/>
</g>
<defs>
<clipPath id="clip0_65_180">
<rect width="88" height="35" fill="white"/>
</clipPath>
</defs>
</svg>
