<svg width="35" height="35" viewBox="0 0 35 35" fill="none" xmlns="http://www.w3.org/2000/svg">
<g clip-path="url(#clip0_65_155)">
<path d="M10.2522 0.122391C8.39017 0.210241 7.11862 0.507391 6.00702 0.944191C4.85657 1.39254 3.88147 1.99419 2.91127 2.96789C1.94107 3.94159 1.34362 4.91739 0.898417 6.06959C0.467567 7.18364 0.175667 8.45624 0.0934173 10.3193C0.0111674 12.1823 -0.00703266 12.7812 0.00206734 17.5335C0.0111673 22.2858 0.0321673 22.8815 0.122467 24.7484C0.211367 26.61 0.507467 27.8812 0.944267 28.9932C1.39332 30.1436 1.99427 31.1184 2.96832 32.0889C3.94237 33.0595 4.91747 33.6555 6.07247 34.1014C7.18547 34.5316 8.45842 34.8249 10.3211 34.9064C12.1838 34.988 12.7834 35.0069 17.5343 34.9978C22.2852 34.9887 22.8833 34.9677 24.7499 34.8791C26.6164 34.7906 27.881 34.4924 28.9933 34.0577C30.1437 33.6076 31.1192 33.0077 32.089 32.0333C33.0589 31.0589 33.656 30.0824 34.1008 28.9295C34.532 27.8165 34.825 26.5435 34.9058 24.6822C34.9874 22.8143 35.0066 22.2179 34.9975 17.4663C34.9884 12.7147 34.9671 12.119 34.8785 10.2528C34.79 8.38659 34.4935 7.11924 34.0571 6.00659C33.6073 4.85614 33.0071 3.88209 32.0334 2.91084C31.0597 1.93959 30.0825 1.34284 28.9299 0.899041C27.8162 0.468191 26.544 0.174541 24.6813 0.0940408C22.8186 0.0135408 22.219 -0.00710918 17.4664 0.00199082C12.7137 0.0110908 12.1187 0.0313908 10.2522 0.122391ZM10.4566 31.7582C8.75032 31.684 7.82387 31.4005 7.20647 31.1632C6.38887 30.8482 5.80647 30.4674 5.19117 29.858C4.57587 29.2487 4.19787 28.6642 3.87867 27.8483C3.63892 27.2309 3.35017 26.3055 3.27037 24.5993C3.18357 22.7551 3.16537 22.2014 3.15522 17.5293C3.14507 12.8571 3.16292 12.3041 3.24377 10.4593C3.31657 8.75444 3.60182 7.82694 3.83877 7.20989C4.15377 6.39124 4.53317 5.80989 5.14392 5.19494C5.75467 4.57999 6.33742 4.20129 7.15397 3.88209C7.77067 3.64129 8.69607 3.35499 10.4016 3.27379C12.2472 3.18629 12.8002 3.16879 17.4716 3.15864C22.1431 3.14849 22.6975 3.16599 24.5437 3.24719C26.2486 3.32139 27.1764 3.60384 27.7928 3.84219C28.6107 4.15719 29.1928 4.53554 29.8077 5.14734C30.4227 5.75914 30.8017 6.33979 31.1209 7.15809C31.3621 7.77304 31.6484 8.69809 31.7289 10.4047C31.8167 12.2502 31.8367 12.8036 31.8451 17.4747C31.8535 22.1458 31.837 22.7005 31.7562 24.5447C31.6816 26.2509 31.3988 27.1777 31.1612 27.7958C30.8462 28.6131 30.4664 29.1958 29.8553 29.8104C29.2442 30.425 28.6622 30.8037 27.8453 31.1229C27.2293 31.3634 26.3028 31.6504 24.5987 31.7316C22.7531 31.8184 22.2001 31.8366 17.5269 31.8467C12.8537 31.8569 12.3025 31.838 10.4569 31.7582M24.7229 8.14684C24.7236 8.56221 24.8475 8.96805 25.0788 9.31302C25.3102 9.65799 25.6386 9.92661 26.0227 10.0849C26.4067 10.2432 26.829 10.284 27.2363 10.2022C27.6435 10.1205 28.0174 9.91979 28.3106 9.62554C28.6037 9.33129 28.8031 8.95671 28.8833 8.54917C28.9636 8.14163 28.9212 7.71943 28.7615 7.33599C28.6018 6.95254 28.332 6.62506 27.9862 6.39497C27.6404 6.16488 27.2341 6.04251 26.8187 6.04334C26.2619 6.04445 25.7283 6.26668 25.3353 6.66114C24.9422 7.0556 24.722 7.59001 24.7229 8.14684ZM8.51442 17.5174C8.52422 22.4804 12.5548 26.4945 17.5168 26.4851C22.4787 26.4756 26.4957 22.4454 26.4862 17.4824C26.4768 12.5194 22.4451 8.50419 17.4825 8.51399C12.5198 8.52379 8.50497 12.5551 8.51442 17.5174ZM11.6665 17.5111C11.6642 16.3573 12.0041 15.2288 12.6432 14.2683C13.2823 13.3077 14.1919 12.5582 15.2569 12.1146C16.322 11.6709 17.4947 11.5531 18.6267 11.776C19.7587 11.9988 20.7992 12.5523 21.6166 13.3665C22.4341 14.1807 22.9917 15.219 23.2191 16.3502C23.4464 17.4813 23.3332 18.6544 22.8938 19.7212C22.4544 20.788 21.7085 21.7006 20.7504 22.3435C19.7924 22.9863 18.6653 23.3307 17.5115 23.333C16.7454 23.3346 15.9865 23.1853 15.2782 22.8936C14.5698 22.6018 13.9258 22.1734 13.3831 21.6328C12.8403 21.0922 12.4093 20.4499 12.1148 19.7427C11.8203 19.0355 11.6679 18.2772 11.6665 17.5111Z" fill="#111B21"/>
</g>
<defs>
<clipPath id="clip0_65_155">
<rect width="35" height="35" fill="white"/>
</clipPath>
</defs>
</svg>
