<svg width="150" height="35" viewBox="0 0 150 35" fill="none" xmlns="http://www.w3.org/2000/svg">
<g clip-path="url(#clip0_65_158)">
<path d="M147.892 32.7406C147.984 32.7415 148.075 32.7243 148.16 32.69C148.245 32.6557 148.322 32.6052 148.385 32.5414C148.449 32.4777 148.498 32.4021 148.53 32.3194C148.562 32.2367 148.575 32.1487 148.57 32.0607C148.57 31.5785 148.266 31.3481 147.641 31.3481H146.632V33.8727H147.011V32.7722H147.478L147.488 32.7856L148.212 33.8727H148.618L147.839 32.7476L147.892 32.7406ZM147.453 32.4877H147.012V31.6343H147.57C147.859 31.6343 148.187 31.6793 148.187 32.0398C148.187 32.4545 147.855 32.4877 147.45 32.4877" fill="black"/>
<path d="M0 5.13623H5.60347V24.6384H15.9771V29.5793H0V5.13623Z" fill="#111B21"/>
<path d="M18.4545 13.0063H23.8376V29.5703H18.4545V13.0063ZM21.1461 4.77148C21.7637 4.77159 22.3673 4.94667 22.8808 5.27459C23.3943 5.60252 23.7944 6.06855 24.0307 6.61376C24.267 7.15898 24.3287 7.75889 24.2082 8.33764C24.0876 8.91639 23.7902 9.44799 23.3534 9.86522C22.9167 10.2824 22.3602 10.5666 21.7545 10.6816C21.1488 10.7967 20.5209 10.7376 19.9503 10.5118C19.3798 10.2859 18.8921 9.90349 18.549 9.41283C18.2059 8.92217 18.0227 8.34531 18.0227 7.75521C18.0227 7.36334 18.1035 6.9753 18.2605 6.61327C18.4175 6.25123 18.6475 5.92228 18.9376 5.64521C19.2276 5.36814 19.5719 5.14837 19.9509 4.99845C20.3298 4.84854 20.7359 4.77141 21.1461 4.77148Z" fill="#111B21"/>
<path d="M46.3558 5.13281H51.7389V19.7407L57.8397 12.9991H64.4396L57.3743 20.6676L64.291 29.5775H57.5251L51.8107 21.3898H51.74V29.5764H46.3569L46.3558 5.13281Z" fill="#111B21"/>
<path d="M26.8224 13.0081H31.9919V15.2718H32.0653C32.5817 14.4265 33.3286 13.7312 34.2263 13.2599C35.1241 12.7887 36.1389 12.5592 37.1625 12.5961C42.6212 12.5961 43.6261 16.0278 43.6261 20.4859V29.5695H38.243V21.5162C38.243 19.5939 38.206 17.1229 35.4393 17.1229C32.6412 17.1229 32.2094 19.2162 32.2094 21.3764V29.5673H26.8263L26.8224 13.0081Z" fill="#111B21"/>
<path d="M75.7761 19.3617C75.7864 18.9444 75.7079 18.5295 75.5454 18.142C75.3829 17.7546 75.1398 17.4027 74.8308 17.1076C74.5218 16.8126 74.1533 16.5805 73.7477 16.4255C73.3421 16.2706 72.9078 16.1959 72.4711 16.206C71.5305 16.1501 70.6046 16.4496 69.893 17.0399C69.1814 17.6302 68.7411 18.4641 68.667 19.3617H75.7761ZM80.336 26.7018C79.4415 27.7383 78.3169 28.5717 77.0437 29.1417C75.7705 29.7116 74.3806 30.0039 72.9746 29.9974C67.5915 29.9974 63.2817 26.5641 63.2817 21.2476C63.2817 15.9311 67.591 12.4995 72.9746 12.4995C78.0061 12.4995 81.1614 15.9285 81.1614 21.2476V22.8603H68.667C68.8226 23.7749 69.3188 24.605 70.0644 25.1976C70.8099 25.7902 71.7544 26.1054 72.724 26.0851C73.4902 26.0806 74.243 25.893 74.914 25.5395C75.5849 25.186 76.1527 24.6777 76.5656 24.061L80.336 26.7018Z" fill="#111B21"/>
<path d="M92.3818 17.0105C89.6902 17.0105 88.0753 18.7277 88.0753 21.2298C88.0753 23.7318 89.6897 25.4506 92.3818 25.4506C95.0739 25.4506 96.6922 23.7361 96.6922 21.2298C96.6922 18.7234 95.0767 17.0105 92.3818 17.0105ZM101.648 29.5675H96.6922V27.3708H96.6187C95.997 28.1698 95.1906 28.8209 94.2623 29.2733C93.3341 29.7257 92.309 29.9672 91.267 29.979C86.0948 29.979 82.6877 26.4123 82.6877 21.3685C82.6877 16.7362 85.7028 12.4827 90.6592 12.4827C92.887 12.4827 94.9679 13.0651 96.1886 14.6794H96.2593V5.13135H101.647L101.648 29.5675Z" fill="#111B21"/>
<path d="M137.989 29.5771H132.606V21.5223C132.606 19.6015 132.57 17.1289 129.806 17.1289C127.002 17.1289 126.573 19.2217 126.573 21.3824V29.5766H121.19V13.0126H126.358V15.2762H126.43C126.948 14.4313 127.695 13.7363 128.593 13.2651C129.491 12.7939 130.506 12.5643 131.529 12.6006C136.985 12.6006 137.991 16.0295 137.991 20.4904L137.989 29.5771ZM115.116 10.7484C114.499 10.7485 113.895 10.5735 113.381 10.2457C112.867 9.91778 112.467 9.45168 112.23 8.90632C111.993 8.36096 111.931 7.76083 112.052 7.18181C112.172 6.6028 112.47 6.07091 112.907 5.6534C113.343 5.2359 113.9 4.95152 114.506 4.83625C115.112 4.72098 115.74 4.77998 116.311 5.00579C116.882 5.23161 117.37 5.61409 117.713 6.10488C118.056 6.59567 118.24 7.17272 118.24 7.76306C118.24 8.15503 118.159 8.54317 118.002 8.90533C117.845 9.26749 117.615 9.59657 117.325 9.87379C117.035 10.151 116.691 10.3709 116.312 10.521C115.933 10.671 115.527 10.7483 115.116 10.7484ZM117.808 29.5771H112.419V13.0126H117.808V29.5771ZM140.673 0.002365H109.714C109.012 -0.00521158 108.335 0.254069 107.832 0.723232C107.329 1.19239 107.042 1.83305 107.033 2.50443V32.2072C107.042 32.8789 107.329 33.52 107.831 33.9897C108.334 34.4593 109.011 34.7191 109.714 34.712H140.673C141.377 34.7204 142.056 34.4614 142.561 33.9917C143.066 33.5221 143.354 32.8803 143.364 32.2072V2.50229C143.354 1.82958 143.065 1.18819 142.56 0.71904C142.056 0.249889 141.377 -0.00865119 140.673 0.000221032" fill="#111B21"/>
<path d="M147.499 30.2236C146.844 30.2297 146.218 30.4832 145.758 30.9289C145.298 31.3746 145.042 31.9762 145.045 32.602C145.048 33.2278 145.311 33.8269 145.775 34.2683C146.239 34.7098 146.867 34.9576 147.522 34.9576C148.177 34.9576 148.806 34.7098 149.27 34.2683C149.734 33.8269 149.997 33.2278 150 32.602C150.003 31.9762 149.747 31.3746 149.287 30.9289C148.827 30.4832 148.201 30.2297 147.546 30.2236H147.499ZM147.499 34.6866C147.069 34.6935 146.647 34.5784 146.286 34.3561C145.925 34.1337 145.641 33.814 145.47 33.4374C145.299 33.0608 145.248 32.6442 145.325 32.2403C145.402 31.8364 145.602 31.4634 145.901 31.1683C146.2 30.8732 146.583 30.6694 147.003 30.5826C147.423 30.4959 147.861 30.53 148.26 30.6808C148.66 30.8315 149.004 31.0921 149.248 31.4296C149.493 31.7671 149.627 32.1663 149.634 32.5768C149.634 32.5885 149.634 32.5998 149.634 32.6116C149.646 33.15 149.434 33.671 149.044 34.0599C148.654 34.4489 148.119 34.6739 147.555 34.6856H147.499" fill="black"/>
</g>
<defs>
<clipPath id="clip0_65_158">
<rect width="150" height="35" fill="white"/>
</clipPath>
</defs>
</svg>
