<svg width="30" height="30" viewBox="0 0 30 30" fill="none" xmlns="http://www.w3.org/2000/svg">
<path d="M25.5875 2.49993H4.41251C4.17449 2.49662 3.93814 2.54024 3.71697 2.62829C3.4958 2.71633 3.29414 2.84708 3.12351 3.01307C2.95288 3.17906 2.81661 3.37704 2.7225 3.59569C2.62839 3.81435 2.57827 4.0494 2.57501 4.28743V25.7124C2.57827 25.9505 2.62839 26.1855 2.7225 26.4042C2.81661 26.6228 2.95288 26.8208 3.12351 26.9868C3.29414 27.1528 3.4958 27.2835 3.71697 27.3716C3.93814 27.4596 4.17449 27.5032 4.41251 27.4999H25.5875C25.8255 27.5032 26.0619 27.4596 26.2831 27.3716C26.5042 27.2835 26.7059 27.1528 26.8765 26.9868C27.0471 26.8208 27.1834 26.6228 27.2775 26.4042C27.3716 26.1855 27.4218 25.9505 27.425 25.7124V4.28743C27.4218 4.0494 27.3716 3.81435 27.2775 3.59569C27.1834 3.37704 27.0471 3.17906 26.8765 3.01307C26.7059 2.84708 26.5042 2.71633 26.2831 2.62829C26.0619 2.54024 25.8255 2.49662 25.5875 2.49993ZM10.1125 23.4249H6.36251V12.1749H10.1125V23.4249ZM8.23751 10.5999C7.72034 10.5999 7.22435 10.3945 6.85865 10.0288C6.49296 9.66309 6.28751 9.1671 6.28751 8.64993C6.28751 8.13276 6.49296 7.63677 6.85865 7.27107C7.22435 6.90538 7.72034 6.69993 8.23751 6.69993C8.51213 6.66879 8.79023 6.696 9.05361 6.77978C9.31698 6.86357 9.55969 7.00204 9.76583 7.18613C9.97198 7.37022 10.1369 7.59578 10.2499 7.84803C10.3628 8.10029 10.4212 8.37355 10.4212 8.64993C10.4212 8.92631 10.3628 9.19957 10.2499 9.45183C10.1369 9.70408 9.97198 9.92964 9.76583 10.1137C9.55969 10.2978 9.31698 10.4363 9.05361 10.5201C8.79023 10.6039 8.51213 10.6311 8.23751 10.5999ZM23.6375 23.4249H19.8875V17.3874C19.8875 15.8749 19.35 14.8874 17.9875 14.8874C17.5658 14.8905 17.1552 15.0228 16.8111 15.2664C16.4669 15.51 16.2056 15.8533 16.0625 16.2499C15.9647 16.5437 15.9223 16.8531 15.9375 17.1624V23.4124H12.1875V12.1624H15.9375V13.7499C16.2782 13.1588 16.7736 12.6718 17.3706 12.3414C17.9675 12.011 18.6432 11.8497 19.325 11.8749C21.825 11.8749 23.6375 13.4874 23.6375 16.9499V23.4249Z" fill="black"/>
</svg>
