<svg width="614" height="236" viewBox="0 0 614 236" fill="none" xmlns="http://www.w3.org/2000/svg">
<path d="M171.808 189V169.384H164.128V166.6H182.656V169.384H174.976V189H171.808ZM191.495 189.192C189.682 189.192 188.082 188.819 186.695 188.072C185.33 187.325 184.263 186.301 183.495 185C182.749 183.699 182.375 182.205 182.375 180.52C182.375 178.835 182.738 177.341 183.463 176.04C184.21 174.739 185.223 173.725 186.503 173C187.805 172.253 189.266 171.88 190.887 171.88C192.53 171.88 193.981 172.243 195.239 172.968C196.498 173.693 197.479 174.717 198.183 176.04C198.909 177.341 199.271 178.867 199.271 180.616C199.271 180.744 199.261 180.893 199.239 181.064C199.239 181.235 199.229 181.395 199.207 181.544H184.775V179.336H197.607L196.359 180.104C196.381 179.016 196.157 178.045 195.687 177.192C195.218 176.339 194.567 175.677 193.735 175.208C192.925 174.717 191.975 174.472 190.887 174.472C189.821 174.472 188.871 174.717 188.039 175.208C187.207 175.677 186.557 176.349 186.087 177.224C185.618 178.077 185.383 179.059 185.383 180.168V180.68C185.383 181.811 185.639 182.824 186.151 183.72C186.685 184.595 187.421 185.277 188.359 185.768C189.298 186.259 190.375 186.504 191.591 186.504C192.594 186.504 193.501 186.333 194.311 185.992C195.143 185.651 195.869 185.139 196.487 184.456L198.183 186.44C197.415 187.336 196.455 188.019 195.303 188.488C194.173 188.957 192.903 189.192 191.495 189.192ZM210.929 189.192C209.201 189.192 207.654 188.819 206.289 188.072C204.945 187.325 203.889 186.301 203.121 185C202.353 183.699 201.969 182.205 201.969 180.52C201.969 178.835 202.353 177.341 203.121 176.04C203.889 174.739 204.945 173.725 206.289 173C207.654 172.253 209.201 171.88 210.929 171.88C212.465 171.88 213.83 172.189 215.025 172.808C216.241 173.405 217.18 174.301 217.841 175.496L215.505 177C214.95 176.168 214.268 175.56 213.457 175.176C212.668 174.771 211.814 174.568 210.897 174.568C209.788 174.568 208.796 174.813 207.921 175.304C207.046 175.795 206.353 176.488 205.841 177.384C205.329 178.259 205.073 179.304 205.073 180.52C205.073 181.736 205.329 182.792 205.841 183.688C206.353 184.584 207.046 185.277 207.921 185.768C208.796 186.259 209.788 186.504 210.897 186.504C211.814 186.504 212.668 186.312 213.457 185.928C214.268 185.523 214.95 184.904 215.505 184.072L217.841 185.544C217.18 186.717 216.241 187.624 215.025 188.264C213.83 188.883 212.465 189.192 210.929 189.192ZM230.874 171.88C232.261 171.88 233.477 172.147 234.522 172.68C235.589 173.213 236.421 174.024 237.018 175.112C237.616 176.2 237.914 177.576 237.914 179.24V189H234.842V179.592C234.842 177.949 234.437 176.712 233.626 175.88C232.837 175.048 231.717 174.632 230.266 174.632C229.178 174.632 228.229 174.845 227.418 175.272C226.608 175.699 225.978 176.328 225.53 177.16C225.104 177.992 224.89 179.027 224.89 180.264V189H221.818V172.04H224.762V176.616L224.282 175.4C224.837 174.291 225.69 173.427 226.842 172.808C227.994 172.189 229.338 171.88 230.874 171.88ZM250.864 189.192C249.157 189.192 247.642 188.819 246.32 188.072C244.997 187.325 243.952 186.301 243.184 185C242.416 183.677 242.032 182.184 242.032 180.52C242.032 178.835 242.416 177.341 243.184 176.04C243.952 174.739 244.997 173.725 246.32 173C247.642 172.253 249.157 171.88 250.864 171.88C252.549 171.88 254.053 172.253 255.376 173C256.72 173.725 257.765 174.739 258.512 176.04C259.28 177.32 259.664 178.813 259.664 180.52C259.664 182.205 259.28 183.699 258.512 185C257.765 186.301 256.72 187.325 255.376 188.072C254.053 188.819 252.549 189.192 250.864 189.192ZM250.864 186.504C251.952 186.504 252.922 186.259 253.776 185.768C254.65 185.277 255.333 184.584 255.824 183.688C256.314 182.771 256.56 181.715 256.56 180.52C256.56 179.304 256.314 178.259 255.824 177.384C255.333 176.488 254.65 175.795 253.776 175.304C252.922 174.813 251.952 174.568 250.864 174.568C249.776 174.568 248.805 174.813 247.952 175.304C247.098 175.795 246.416 176.488 245.904 177.384C245.392 178.259 245.136 179.304 245.136 180.52C245.136 181.715 245.392 182.771 245.904 183.688C246.416 184.584 247.098 185.277 247.952 185.768C248.805 186.259 249.776 186.504 250.864 186.504ZM263.912 189V165.256H266.984V189H263.912ZM280.114 189.192C278.407 189.192 276.892 188.819 275.57 188.072C274.247 187.325 273.202 186.301 272.434 185C271.666 183.677 271.282 182.184 271.282 180.52C271.282 178.835 271.666 177.341 272.434 176.04C273.202 174.739 274.247 173.725 275.57 173C276.892 172.253 278.407 171.88 280.114 171.88C281.799 171.88 283.303 172.253 284.626 173C285.97 173.725 287.015 174.739 287.762 176.04C288.53 177.32 288.914 178.813 288.914 180.52C288.914 182.205 288.53 183.699 287.762 185C287.015 186.301 285.97 187.325 284.626 188.072C283.303 188.819 281.799 189.192 280.114 189.192ZM280.114 186.504C281.202 186.504 282.172 186.259 283.026 185.768C283.9 185.277 284.583 184.584 285.074 183.688C285.564 182.771 285.81 181.715 285.81 180.52C285.81 179.304 285.564 178.259 285.074 177.384C284.583 176.488 283.9 175.795 283.026 175.304C282.172 174.813 281.202 174.568 280.114 174.568C279.026 174.568 278.055 174.813 277.202 175.304C276.348 175.795 275.666 176.488 275.154 177.384C274.642 178.259 274.386 179.304 274.386 180.52C274.386 181.715 274.642 182.771 275.154 183.688C275.666 184.584 276.348 185.277 277.202 185.768C278.055 186.259 279.026 186.504 280.114 186.504ZM300.586 195.4C299.029 195.4 297.514 195.176 296.042 194.728C294.591 194.301 293.407 193.683 292.49 192.872L293.962 190.504C294.751 191.187 295.722 191.72 296.874 192.104C298.026 192.509 299.231 192.712 300.49 192.712C302.495 192.712 303.967 192.243 304.906 191.304C305.845 190.365 306.314 188.936 306.314 187.016V183.432L306.634 180.072L306.474 176.68V172.04H309.386V186.696C309.386 189.683 308.639 191.88 307.146 193.288C305.653 194.696 303.466 195.4 300.586 195.4ZM300.202 188.296C298.559 188.296 297.087 187.955 295.786 187.272C294.506 186.568 293.482 185.597 292.714 184.36C291.967 183.123 291.594 181.693 291.594 180.072C291.594 178.429 291.967 177 292.714 175.784C293.482 174.547 294.506 173.587 295.786 172.904C297.087 172.221 298.559 171.88 300.202 171.88C301.653 171.88 302.975 172.179 304.17 172.776C305.365 173.352 306.314 174.248 307.018 175.464C307.743 176.68 308.106 178.216 308.106 180.072C308.106 181.907 307.743 183.432 307.018 184.648C306.314 185.864 305.365 186.781 304.17 187.4C302.975 187.997 301.653 188.296 300.202 188.296ZM300.554 185.608C301.685 185.608 302.687 185.373 303.562 184.904C304.437 184.435 305.119 183.784 305.61 182.952C306.122 182.12 306.378 181.16 306.378 180.072C306.378 178.984 306.122 178.024 305.61 177.192C305.119 176.36 304.437 175.72 303.562 175.272C302.687 174.803 301.685 174.568 300.554 174.568C299.423 174.568 298.41 174.803 297.514 175.272C296.639 175.72 295.946 176.36 295.434 177.192C294.943 178.024 294.698 178.984 294.698 180.072C294.698 181.16 294.943 182.12 295.434 182.952C295.946 183.784 296.639 184.435 297.514 184.904C298.41 185.373 299.423 185.608 300.554 185.608ZM315.256 189V172.04H318.328V189H315.256ZM316.792 168.776C316.194 168.776 315.693 168.584 315.288 168.2C314.904 167.816 314.712 167.347 314.712 166.792C314.712 166.216 314.904 165.736 315.288 165.352C315.693 164.968 316.194 164.776 316.792 164.776C317.389 164.776 317.88 164.968 318.264 165.352C318.669 165.715 318.872 166.173 318.872 166.728C318.872 167.304 318.68 167.795 318.296 168.2C317.912 168.584 317.41 168.776 316.792 168.776ZM334.721 189V185.416L334.561 184.744V178.632C334.561 177.331 334.177 176.328 333.409 175.624C332.663 174.899 331.532 174.536 330.017 174.536C329.015 174.536 328.033 174.707 327.073 175.048C326.113 175.368 325.303 175.805 324.641 176.36L323.361 174.056C324.236 173.352 325.281 172.819 326.497 172.456C327.735 172.072 329.025 171.88 330.369 171.88C332.695 171.88 334.487 172.445 335.745 173.576C337.004 174.707 337.633 176.435 337.633 178.76V189H334.721ZM329.153 189.192C327.895 189.192 326.785 188.979 325.825 188.552C324.887 188.125 324.161 187.539 323.649 186.792C323.137 186.024 322.881 185.16 322.881 184.2C322.881 183.283 323.095 182.451 323.521 181.704C323.969 180.957 324.684 180.36 325.665 179.912C326.668 179.464 328.012 179.24 329.697 179.24H335.073V181.448H329.825C328.289 181.448 327.255 181.704 326.721 182.216C326.188 182.728 325.921 183.347 325.921 184.072C325.921 184.904 326.252 185.576 326.913 186.088C327.575 186.579 328.492 186.824 329.665 186.824C330.817 186.824 331.82 186.568 332.673 186.056C333.548 185.544 334.177 184.797 334.561 183.816L335.169 185.928C334.764 186.931 334.049 187.731 333.025 188.328C332.001 188.904 330.711 189.192 329.153 189.192ZM342.102 193.736L343.702 187.272L344.118 189.128C343.5 189.128 342.977 188.936 342.55 188.552C342.145 188.168 341.942 187.645 341.942 186.984C341.942 186.344 342.145 185.821 342.55 185.416C342.977 185.011 343.489 184.808 344.086 184.808C344.705 184.808 345.206 185.021 345.59 185.448C345.974 185.853 346.166 186.365 346.166 186.984C346.166 187.197 346.145 187.411 346.102 187.624C346.081 187.816 346.028 188.051 345.942 188.328C345.878 188.584 345.772 188.904 345.622 189.288L344.118 193.736H342.102ZM368.154 189.192C366.746 189.192 365.455 188.872 364.282 188.232C363.13 187.571 362.202 186.6 361.498 185.32C360.815 184.04 360.474 182.44 360.474 180.52C360.474 178.6 360.805 177 361.466 175.72C362.149 174.44 363.066 173.48 364.218 172.84C365.391 172.2 366.703 171.88 368.154 171.88C369.818 171.88 371.29 172.243 372.57 172.968C373.85 173.693 374.863 174.707 375.61 176.008C376.357 177.288 376.73 178.792 376.73 180.52C376.73 182.248 376.357 183.763 375.61 185.064C374.863 186.365 373.85 187.379 372.57 188.104C371.29 188.829 369.818 189.192 368.154 189.192ZM359.162 195.208V172.04H362.106V176.616L361.914 180.552L362.234 184.488V195.208H359.162ZM367.898 186.504C368.986 186.504 369.957 186.259 370.81 185.768C371.685 185.277 372.367 184.584 372.858 183.688C373.37 182.771 373.626 181.715 373.626 180.52C373.626 179.304 373.37 178.259 372.858 177.384C372.367 176.488 371.685 175.795 370.81 175.304C369.957 174.813 368.986 174.568 367.898 174.568C366.831 174.568 365.861 174.813 364.986 175.304C364.133 175.795 363.45 176.488 362.938 177.384C362.447 178.259 362.202 179.304 362.202 180.52C362.202 181.715 362.447 182.771 362.938 183.688C363.45 184.584 364.133 185.277 364.986 185.768C365.861 186.259 366.831 186.504 367.898 186.504ZM388.527 189.192C386.713 189.192 385.113 188.819 383.727 188.072C382.361 187.325 381.295 186.301 380.527 185C379.78 183.699 379.407 182.205 379.407 180.52C379.407 178.835 379.769 177.341 380.495 176.04C381.241 174.739 382.255 173.725 383.535 173C384.836 172.253 386.297 171.88 387.919 171.88C389.561 171.88 391.012 172.243 392.271 172.968C393.529 173.693 394.511 174.717 395.215 176.04C395.94 177.341 396.303 178.867 396.303 180.616C396.303 180.744 396.292 180.893 396.271 181.064C396.271 181.235 396.26 181.395 396.239 181.544H381.807V179.336H394.639L393.391 180.104C393.412 179.016 393.188 178.045 392.719 177.192C392.249 176.339 391.599 175.677 390.767 175.208C389.956 174.717 389.007 174.472 387.919 174.472C386.852 174.472 385.903 174.717 385.071 175.208C384.239 175.677 383.588 176.349 383.119 177.224C382.649 178.077 382.415 179.059 382.415 180.168V180.68C382.415 181.811 382.671 182.824 383.183 183.72C383.716 184.595 384.452 185.277 385.391 185.768C386.329 186.259 387.407 186.504 388.623 186.504C389.625 186.504 390.532 186.333 391.343 185.992C392.175 185.651 392.9 185.139 393.519 184.456L395.215 186.44C394.447 187.336 393.487 188.019 392.335 188.488C391.204 188.957 389.935 189.192 388.527 189.192ZM400.568 189V172.04H403.512V176.648L403.224 175.496C403.694 174.323 404.483 173.427 405.592 172.808C406.702 172.189 408.067 171.88 409.688 171.88V174.856C409.56 174.835 409.432 174.824 409.304 174.824C409.198 174.824 409.091 174.824 408.984 174.824C407.342 174.824 406.04 175.315 405.08 176.296C404.12 177.277 403.64 178.696 403.64 180.552V189H400.568ZM414.141 189V170.536C414.141 168.872 414.621 167.549 415.581 166.568C416.563 165.565 417.949 165.064 419.741 165.064C420.403 165.064 421.032 165.149 421.629 165.32C422.248 165.469 422.771 165.715 423.197 166.056L422.269 168.392C421.949 168.136 421.587 167.944 421.181 167.816C420.776 167.667 420.349 167.592 419.901 167.592C419.005 167.592 418.323 167.848 417.853 168.36C417.384 168.851 417.149 169.587 417.149 170.568V172.84L417.213 174.248V189H414.141ZM411.261 174.568V172.04H422.077V174.568H411.261ZM431.989 189.192C430.282 189.192 428.767 188.819 427.445 188.072C426.122 187.325 425.077 186.301 424.309 185C423.541 183.677 423.157 182.184 423.157 180.52C423.157 178.835 423.541 177.341 424.309 176.04C425.077 174.739 426.122 173.725 427.445 173C428.767 172.253 430.282 171.88 431.989 171.88C433.674 171.88 435.178 172.253 436.501 173C437.845 173.725 438.89 174.739 439.637 176.04C440.405 177.32 440.789 178.813 440.789 180.52C440.789 182.205 440.405 183.699 439.637 185C438.89 186.301 437.845 187.325 436.501 188.072C435.178 188.819 433.674 189.192 431.989 189.192ZM431.989 186.504C433.077 186.504 434.047 186.259 434.901 185.768C435.775 185.277 436.458 184.584 436.949 183.688C437.439 182.771 437.685 181.715 437.685 180.52C437.685 179.304 437.439 178.259 436.949 177.384C436.458 176.488 435.775 175.795 434.901 175.304C434.047 174.813 433.077 174.568 431.989 174.568C430.901 174.568 429.93 174.813 429.077 175.304C428.223 175.795 427.541 176.488 427.029 177.384C426.517 178.259 426.261 179.304 426.261 180.52C426.261 181.715 426.517 182.771 427.029 183.688C427.541 184.584 428.223 185.277 429.077 185.768C429.93 186.259 430.901 186.504 431.989 186.504ZM445.037 189V172.04H447.981V176.648L447.693 175.496C448.162 174.323 448.952 173.427 450.061 172.808C451.17 172.189 452.536 171.88 454.157 171.88V174.856C454.029 174.835 453.901 174.824 453.773 174.824C453.666 174.824 453.56 174.824 453.453 174.824C451.81 174.824 450.509 175.315 449.549 176.296C448.589 177.277 448.109 178.696 448.109 180.552V189H445.037ZM479.159 171.88C480.525 171.88 481.73 172.147 482.775 172.68C483.821 173.213 484.631 174.024 485.207 175.112C485.805 176.2 486.103 177.576 486.103 179.24V189H483.031V179.592C483.031 177.949 482.647 176.712 481.879 175.88C481.111 175.048 480.034 174.632 478.647 174.632C477.623 174.632 476.727 174.845 475.959 175.272C475.191 175.699 474.594 176.328 474.167 177.16C473.762 177.992 473.559 179.027 473.559 180.264V189H470.487V179.592C470.487 177.949 470.103 176.712 469.335 175.88C468.589 175.048 467.511 174.632 466.103 174.632C465.101 174.632 464.215 174.845 463.447 175.272C462.679 175.699 462.082 176.328 461.655 177.16C461.229 177.992 461.015 179.027 461.015 180.264V189H457.943V172.04H460.887V176.552L460.407 175.4C460.941 174.291 461.762 173.427 462.871 172.808C463.981 172.189 465.271 171.88 466.743 171.88C468.365 171.88 469.762 172.285 470.935 173.096C472.109 173.885 472.877 175.091 473.239 176.712L471.991 176.2C472.503 174.899 473.399 173.853 474.679 173.064C475.959 172.275 477.453 171.88 479.159 171.88ZM502.284 189V185.416L502.124 184.744V178.632C502.124 177.331 501.74 176.328 500.972 175.624C500.225 174.899 499.094 174.536 497.58 174.536C496.577 174.536 495.596 174.707 494.636 175.048C493.676 175.368 492.865 175.805 492.204 176.36L490.924 174.056C491.798 173.352 492.844 172.819 494.06 172.456C495.297 172.072 496.588 171.88 497.932 171.88C500.257 171.88 502.049 172.445 503.308 173.576C504.566 174.707 505.196 176.435 505.196 178.76V189H502.284ZM496.716 189.192C495.457 189.192 494.348 188.979 493.388 188.552C492.449 188.125 491.724 187.539 491.212 186.792C490.7 186.024 490.444 185.16 490.444 184.2C490.444 183.283 490.657 182.451 491.084 181.704C491.532 180.957 492.246 180.36 493.228 179.912C494.23 179.464 495.574 179.24 497.26 179.24H502.636V181.448H497.388C495.852 181.448 494.817 181.704 494.284 182.216C493.75 182.728 493.484 183.347 493.484 184.072C493.484 184.904 493.814 185.576 494.476 186.088C495.137 186.579 496.054 186.824 497.228 186.824C498.38 186.824 499.382 186.568 500.236 186.056C501.11 185.544 501.74 184.797 502.124 183.816L502.732 185.928C502.326 186.931 501.612 187.731 500.588 188.328C499.564 188.904 498.273 189.192 496.716 189.192ZM519.937 171.88C521.323 171.88 522.539 172.147 523.585 172.68C524.651 173.213 525.483 174.024 526.081 175.112C526.678 176.2 526.977 177.576 526.977 179.24V189H523.905V179.592C523.905 177.949 523.499 176.712 522.689 175.88C521.899 175.048 520.779 174.632 519.329 174.632C518.241 174.632 517.291 174.845 516.481 175.272C515.67 175.699 515.041 176.328 514.593 177.16C514.166 177.992 513.953 179.027 513.953 180.264V189H510.881V172.04H513.825V176.616L513.345 175.4C513.899 174.291 514.753 173.427 515.905 172.808C517.057 172.189 518.401 171.88 519.937 171.88ZM540.054 189.192C538.326 189.192 536.779 188.819 535.414 188.072C534.07 187.325 533.014 186.301 532.246 185C531.478 183.699 531.094 182.205 531.094 180.52C531.094 178.835 531.478 177.341 532.246 176.04C533.014 174.739 534.07 173.725 535.414 173C536.779 172.253 538.326 171.88 540.054 171.88C541.59 171.88 542.955 172.189 544.15 172.808C545.366 173.405 546.305 174.301 546.966 175.496L544.63 177C544.075 176.168 543.393 175.56 542.582 175.176C541.793 174.771 540.939 174.568 540.022 174.568C538.913 174.568 537.921 174.813 537.046 175.304C536.171 175.795 535.478 176.488 534.966 177.384C534.454 178.259 534.198 179.304 534.198 180.52C534.198 181.736 534.454 182.792 534.966 183.688C535.478 184.584 536.171 185.277 537.046 185.768C537.921 186.259 538.913 186.504 540.022 186.504C540.939 186.504 541.793 186.312 542.582 185.928C543.393 185.523 544.075 184.904 544.63 184.072L546.966 185.544C546.305 186.717 545.366 187.624 544.15 188.264C542.955 188.883 541.59 189.192 540.054 189.192ZM558.245 189.192C556.432 189.192 554.832 188.819 553.445 188.072C552.08 187.325 551.013 186.301 550.245 185C549.499 183.699 549.125 182.205 549.125 180.52C549.125 178.835 549.488 177.341 550.213 176.04C550.96 174.739 551.973 173.725 553.253 173C554.555 172.253 556.016 171.88 557.637 171.88C559.28 171.88 560.731 172.243 561.989 172.968C563.248 173.693 564.229 174.717 564.933 176.04C565.659 177.341 566.021 178.867 566.021 180.616C566.021 180.744 566.011 180.893 565.989 181.064C565.989 181.235 565.979 181.395 565.957 181.544H551.525V179.336H564.357L563.109 180.104C563.131 179.016 562.907 178.045 562.437 177.192C561.968 176.339 561.317 175.677 560.485 175.208C559.675 174.717 558.725 174.472 557.637 174.472C556.571 174.472 555.621 174.717 554.789 175.208C553.957 175.677 553.307 176.349 552.837 177.224C552.368 178.077 552.133 179.059 552.133 180.168V180.68C552.133 181.811 552.389 182.824 552.901 183.72C553.435 184.595 554.171 185.277 555.109 185.768C556.048 186.259 557.125 186.504 558.341 186.504C559.344 186.504 560.251 186.333 561.061 185.992C561.893 185.651 562.619 185.139 563.237 184.456L564.933 186.44C564.165 187.336 563.205 188.019 562.053 188.488C560.923 188.957 559.653 189.192 558.245 189.192ZM586.433 189.192C584.619 189.192 583.019 188.819 581.633 188.072C580.267 187.325 579.201 186.301 578.433 185C577.686 183.699 577.313 182.205 577.313 180.52C577.313 178.835 577.675 177.341 578.401 176.04C579.147 174.739 580.161 173.725 581.441 173C582.742 172.253 584.203 171.88 585.825 171.88C587.467 171.88 588.918 172.243 590.177 172.968C591.435 173.693 592.417 174.717 593.121 176.04C593.846 177.341 594.209 178.867 594.209 180.616C594.209 180.744 594.198 180.893 594.177 181.064C594.177 181.235 594.166 181.395 594.145 181.544H579.713V179.336H592.545L591.297 180.104C591.318 179.016 591.094 178.045 590.625 177.192C590.155 176.339 589.505 175.677 588.673 175.208C587.862 174.717 586.913 174.472 585.825 174.472C584.758 174.472 583.809 174.717 582.977 175.208C582.145 175.677 581.494 176.349 581.025 177.224C580.555 178.077 580.321 179.059 580.321 180.168V180.68C580.321 181.811 580.577 182.824 581.089 183.72C581.622 184.595 582.358 185.277 583.297 185.768C584.235 186.259 585.313 186.504 586.529 186.504C587.531 186.504 588.438 186.333 589.249 185.992C590.081 185.651 590.806 185.139 591.425 184.456L593.121 186.44C592.353 187.336 591.393 188.019 590.241 188.488C589.11 188.957 587.841 189.192 586.433 189.192ZM174.304 228.192C172.576 228.192 171.029 227.819 169.664 227.072C168.32 226.325 167.264 225.301 166.496 224C165.728 222.699 165.344 221.205 165.344 219.52C165.344 217.835 165.728 216.341 166.496 215.04C167.264 213.739 168.32 212.725 169.664 212C171.029 211.253 172.576 210.88 174.304 210.88C175.84 210.88 177.205 211.189 178.4 211.808C179.616 212.405 180.555 213.301 181.216 214.496L178.88 216C178.325 215.168 177.643 214.56 176.832 214.176C176.043 213.771 175.189 213.568 174.272 213.568C173.163 213.568 172.171 213.813 171.296 214.304C170.421 214.795 169.728 215.488 169.216 216.384C168.704 217.259 168.448 218.304 168.448 219.52C168.448 220.736 168.704 221.792 169.216 222.688C169.728 223.584 170.421 224.277 171.296 224.768C172.171 225.259 173.163 225.504 174.272 225.504C175.189 225.504 176.043 225.312 176.832 224.928C177.643 224.523 178.325 223.904 178.88 223.072L181.216 224.544C180.555 225.717 179.616 226.624 178.4 227.264C177.205 227.883 175.84 228.192 174.304 228.192ZM192.207 228.192C190.501 228.192 188.986 227.819 187.663 227.072C186.341 226.325 185.295 225.301 184.527 224C183.759 222.677 183.375 221.184 183.375 219.52C183.375 217.835 183.759 216.341 184.527 215.04C185.295 213.739 186.341 212.725 187.663 212C188.986 211.253 190.501 210.88 192.207 210.88C193.893 210.88 195.397 211.253 196.719 212C198.063 212.725 199.109 213.739 199.855 215.04C200.623 216.32 201.007 217.813 201.007 219.52C201.007 221.205 200.623 222.699 199.855 224C199.109 225.301 198.063 226.325 196.719 227.072C195.397 227.819 193.893 228.192 192.207 228.192ZM192.207 225.504C193.295 225.504 194.266 225.259 195.119 224.768C195.994 224.277 196.677 223.584 197.167 222.688C197.658 221.771 197.903 220.715 197.903 219.52C197.903 218.304 197.658 217.259 197.167 216.384C196.677 215.488 195.994 214.795 195.119 214.304C194.266 213.813 193.295 213.568 192.207 213.568C191.119 213.568 190.149 213.813 189.295 214.304C188.442 214.795 187.759 215.488 187.247 216.384C186.735 217.259 186.479 218.304 186.479 219.52C186.479 220.715 186.735 221.771 187.247 222.688C187.759 223.584 188.442 224.277 189.295 224.768C190.149 225.259 191.119 225.504 192.207 225.504ZM214.312 210.88C215.698 210.88 216.914 211.147 217.96 211.68C219.026 212.213 219.858 213.024 220.456 214.112C221.053 215.2 221.352 216.576 221.352 218.24V228H218.28V218.592C218.28 216.949 217.874 215.712 217.064 214.88C216.274 214.048 215.154 213.632 213.704 213.632C212.616 213.632 211.666 213.845 210.856 214.272C210.045 214.699 209.416 215.328 208.968 216.16C208.541 216.992 208.328 218.027 208.328 219.264V228H205.256V211.04H208.2V215.616L207.72 214.4C208.274 213.291 209.128 212.427 210.28 211.808C211.432 211.189 212.776 210.88 214.312 210.88ZM227.485 228V209.536C227.485 207.872 227.965 206.549 228.925 205.568C229.906 204.565 231.293 204.064 233.085 204.064C233.746 204.064 234.376 204.149 234.973 204.32C235.592 204.469 236.114 204.715 236.541 205.056L235.613 207.392C235.293 207.136 234.93 206.944 234.525 206.816C234.12 206.667 233.693 206.592 233.245 206.592C232.349 206.592 231.666 206.848 231.197 207.36C230.728 207.851 230.493 208.587 230.493 209.568V211.84L230.557 213.248V228H227.485ZM224.605 213.568V211.04H235.421V213.568H224.605ZM238.333 228V211.04H241.405V228H238.333ZM239.869 207.776C239.272 207.776 238.77 207.584 238.365 207.2C237.981 206.816 237.789 206.347 237.789 205.792C237.789 205.216 237.981 204.736 238.365 204.352C238.77 203.968 239.272 203.776 239.869 203.776C240.466 203.776 240.957 203.968 241.341 204.352C241.746 204.715 241.949 205.173 241.949 205.728C241.949 206.304 241.757 206.795 241.373 207.2C240.989 207.584 240.488 207.776 239.869 207.776ZM257.784 228V224.416L257.624 223.744V217.632C257.624 216.331 257.24 215.328 256.472 214.624C255.725 213.899 254.594 213.536 253.08 213.536C252.077 213.536 251.096 213.707 250.136 214.048C249.176 214.368 248.365 214.805 247.704 215.36L246.424 213.056C247.298 212.352 248.344 211.819 249.56 211.456C250.797 211.072 252.088 210.88 253.432 210.88C255.757 210.88 257.549 211.445 258.808 212.576C260.066 213.707 260.696 215.435 260.696 217.76V228H257.784ZM252.216 228.192C250.957 228.192 249.848 227.979 248.888 227.552C247.949 227.125 247.224 226.539 246.712 225.792C246.2 225.024 245.944 224.16 245.944 223.2C245.944 222.283 246.157 221.451 246.584 220.704C247.032 219.957 247.746 219.36 248.728 218.912C249.73 218.464 251.074 218.24 252.76 218.24H258.136V220.448H252.888C251.352 220.448 250.317 220.704 249.784 221.216C249.25 221.728 248.984 222.347 248.984 223.072C248.984 223.904 249.314 224.576 249.976 225.088C250.637 225.579 251.554 225.824 252.728 225.824C253.88 225.824 254.882 225.568 255.736 225.056C256.61 224.544 257.24 223.797 257.624 222.816L258.232 224.928C257.826 225.931 257.112 226.731 256.088 227.328C255.064 227.904 253.773 228.192 252.216 228.192ZM275.437 210.88C276.823 210.88 278.039 211.147 279.085 211.68C280.151 212.213 280.983 213.024 281.581 214.112C282.178 215.2 282.477 216.576 282.477 218.24V228H279.405V218.592C279.405 216.949 278.999 215.712 278.189 214.88C277.399 214.048 276.279 213.632 274.829 213.632C273.741 213.632 272.791 213.845 271.981 214.272C271.17 214.699 270.541 215.328 270.093 216.16C269.666 216.992 269.453 218.027 269.453 219.264V228H266.381V211.04H269.325V215.616L268.845 214.4C269.399 213.291 270.253 212.427 271.405 211.808C272.557 211.189 273.901 210.88 275.437 210.88ZM295.554 228.192C293.826 228.192 292.279 227.819 290.914 227.072C289.57 226.325 288.514 225.301 287.746 224C286.978 222.699 286.594 221.205 286.594 219.52C286.594 217.835 286.978 216.341 287.746 215.04C288.514 213.739 289.57 212.725 290.914 212C292.279 211.253 293.826 210.88 295.554 210.88C297.09 210.88 298.455 211.189 299.65 211.808C300.866 212.405 301.805 213.301 302.466 214.496L300.13 216C299.575 215.168 298.893 214.56 298.082 214.176C297.293 213.771 296.439 213.568 295.522 213.568C294.413 213.568 293.421 213.813 292.546 214.304C291.671 214.795 290.978 215.488 290.466 216.384C289.954 217.259 289.698 218.304 289.698 219.52C289.698 220.736 289.954 221.792 290.466 222.688C290.978 223.584 291.671 224.277 292.546 224.768C293.421 225.259 294.413 225.504 295.522 225.504C296.439 225.504 297.293 225.312 298.082 224.928C298.893 224.523 299.575 223.904 300.13 223.072L302.466 224.544C301.805 225.717 300.866 226.624 299.65 227.264C298.455 227.883 297.09 228.192 295.554 228.192ZM294.05 235.168C293.495 235.168 292.983 235.104 292.514 234.976C292.045 234.869 291.607 234.699 291.202 234.464L291.874 232.896C292.215 233.088 292.557 233.227 292.898 233.312C293.261 233.397 293.645 233.44 294.05 233.44C294.669 233.44 295.117 233.323 295.394 233.088C295.693 232.875 295.842 232.565 295.842 232.16C295.842 231.776 295.693 231.467 295.394 231.232C295.117 231.019 294.658 230.912 294.018 230.912H293.154L293.954 227.776H295.714L295.234 229.6C296.151 229.685 296.845 229.973 297.314 230.464C297.783 230.955 298.018 231.552 298.018 232.256C298.018 233.152 297.655 233.856 296.93 234.368C296.205 234.901 295.245 235.168 294.05 235.168ZM316.971 228V224.416L316.811 223.744V217.632C316.811 216.331 316.427 215.328 315.659 214.624C314.913 213.899 313.782 213.536 312.267 213.536C311.265 213.536 310.283 213.707 309.323 214.048C308.363 214.368 307.553 214.805 306.891 215.36L305.611 213.056C306.486 212.352 307.531 211.819 308.747 211.456C309.985 211.072 311.275 210.88 312.619 210.88C314.945 210.88 316.737 211.445 317.995 212.576C319.254 213.707 319.883 215.435 319.883 217.76V228H316.971ZM311.403 228.192C310.145 228.192 309.035 227.979 308.075 227.552C307.137 227.125 306.411 226.539 305.899 225.792C305.387 225.024 305.131 224.16 305.131 223.2C305.131 222.283 305.345 221.451 305.771 220.704C306.219 219.957 306.934 219.36 307.915 218.912C308.918 218.464 310.262 218.24 311.947 218.24H317.323V220.448H312.075C310.539 220.448 309.505 220.704 308.971 221.216C308.438 221.728 308.171 222.347 308.171 223.072C308.171 223.904 308.502 224.576 309.163 225.088C309.825 225.579 310.742 225.824 311.915 225.824C313.067 225.824 314.07 225.568 314.923 225.056C315.798 224.544 316.427 223.797 316.811 222.816L317.419 224.928C317.014 225.931 316.299 226.731 315.275 227.328C314.251 227.904 312.961 228.192 311.403 228.192Z" fill="white"/>
<path d="M44.842 125.265C40.4648 128.026 36.152 126.415 34.5427 125.265C19.3514 111.456 5.57613 95.5767 0.426502 89.363C-0.345941 84.9444 0.104661 81.9988 0.426512 81.0782C20.7675 55.119 33.0408 44.4867 36.7957 42.4155C38.8556 42.1393 41.0871 42.3004 41.9453 42.4155C47.4168 43.4511 49.9916 46.9031 52.8883 51.3908C55.2056 54.9809 54.7121 59.7906 54.1757 61.7468C45.1639 70.8602 40.0142 77.9714 38.405 80.3878C37.4395 84.8753 38.405 87.9822 38.405 88.3274C38.405 88.6035 47.5241 99.8342 52.2446 105.242C57.9092 113.803 49.6697 122.157 44.842 125.265Z" fill="white"/>
<path d="M103.657 83.1403H152.117L84.2731 11.0854H38.7208L103.657 80.3689V83.1403Z" fill="white"/>
<path d="M103.576 88.0127L40.7951 157.967H84.8061H85.1297L152.117 83.1403H103.576V88.0127Z" fill="white"/>
<path d="M210.364 121.519C203.727 121.519 197.545 120.439 191.82 118.277C186.177 116.033 181.241 112.914 177.009 108.924C172.861 104.85 169.624 100.069 167.301 94.5818C164.978 89.0945 163.817 83.1084 163.817 76.6235C163.817 70.1385 164.978 64.1524 167.301 58.6651C169.624 53.1778 172.902 48.4389 177.133 44.4482C181.365 40.3743 186.302 37.2565 191.944 35.0949C197.587 32.8501 203.768 31.7277 210.489 31.7277C217.624 31.7277 224.138 32.9748 230.028 35.4691C235.92 37.88 240.898 41.4967 244.964 46.3189L234.509 56.171C231.357 52.7622 227.83 50.2264 223.93 48.5636C220.03 46.8177 215.799 45.9446 211.236 45.9446C206.672 45.9446 202.481 46.693 198.665 48.1894C194.931 49.686 191.653 51.8061 188.833 54.5498C186.095 57.2934 183.937 60.5358 182.36 64.2771C180.867 68.0184 180.12 72.1339 180.12 76.6235C180.12 81.113 180.867 85.2285 182.36 88.9698C183.937 92.7111 186.095 95.9536 188.833 98.6973C191.653 101.441 194.931 103.561 198.665 105.057C202.481 106.554 206.672 107.302 211.236 107.302C215.799 107.302 220.03 106.471 223.93 104.808C227.83 103.062 231.357 100.443 234.509 96.9512L244.964 106.928C240.898 111.667 235.92 115.284 230.028 117.778C224.138 120.272 217.583 121.519 210.364 121.519ZM286.291 121.145C279.488 121.145 273.431 119.69 268.121 116.781C262.81 113.787 258.62 109.713 255.55 104.559C252.48 99.4039 250.945 93.5426 250.945 86.9744C250.945 80.3231 252.48 74.4618 255.55 69.3903C258.62 64.2356 262.81 60.2032 268.121 57.2934C273.431 54.3835 279.488 52.9285 286.291 52.9285C293.178 52.9285 299.277 54.3835 304.587 57.2934C309.98 60.2032 314.171 64.194 317.158 69.2655C320.228 74.3371 321.763 80.2401 321.763 86.9744C321.763 93.5426 320.228 99.4039 317.158 104.559C314.171 109.713 309.98 113.787 304.587 116.781C299.277 119.69 293.178 121.145 286.291 121.145ZM286.291 107.801C290.108 107.801 293.51 106.97 296.497 105.307C299.484 103.644 301.808 101.233 303.467 98.0737C305.209 94.9144 306.08 91.2146 306.08 86.9744C306.08 82.6511 305.209 78.9514 303.467 75.8752C301.808 72.7158 299.484 70.3048 296.497 68.6419C293.51 66.9792 290.15 66.1478 286.416 66.1478C282.599 66.1478 279.197 66.9792 276.21 68.6419C273.306 70.3048 270.983 72.7158 269.24 75.8752C267.497 78.9514 266.627 82.6511 266.627 86.9744C266.627 91.2146 267.497 94.9144 269.24 98.0737C270.983 101.233 273.306 103.644 276.21 105.307C279.197 106.97 282.558 107.801 286.291 107.801ZM374.351 52.9285C379.661 52.9285 384.389 53.9677 388.538 56.0462C392.771 58.1247 396.089 61.3256 398.495 65.6489C400.902 69.8891 402.104 75.3764 402.104 82.1107V120.272H386.548V84.1061C386.548 78.2031 385.136 73.7966 382.315 70.8868C379.578 67.9769 375.72 66.5219 370.741 66.5219C367.09 66.5219 363.854 67.2702 361.033 68.7667C358.212 70.2632 356.013 72.508 354.436 75.501C352.943 78.4109 352.196 82.1107 352.196 86.6003V120.272H336.639V53.6767H351.449V71.635L348.836 66.1478C351.16 61.9076 354.519 58.6651 358.918 56.4203C363.398 54.0925 368.542 52.9285 374.351 52.9285ZM421.84 120.272V27.7369H437.398V120.272H421.84ZM487.687 121.145C480.883 121.145 474.826 119.69 469.516 116.781C464.206 113.787 460.015 109.713 456.945 104.559C453.875 99.4039 452.34 93.5426 452.34 86.9744C452.34 80.3231 453.875 74.4618 456.945 69.3903C460.015 64.2356 464.206 60.2032 469.516 57.2934C474.826 54.3835 480.883 52.9285 487.687 52.9285C494.574 52.9285 500.672 54.3835 505.982 57.2934C511.375 60.2032 515.566 64.194 518.553 69.2655C521.623 74.3371 523.158 80.2401 523.158 86.9744C523.158 93.5426 521.623 99.4039 518.553 104.559C515.566 109.713 511.375 113.787 505.982 116.781C500.672 119.69 494.574 121.145 487.687 121.145ZM487.687 107.801C491.504 107.801 494.906 106.97 497.893 105.307C500.88 103.644 503.203 101.233 504.863 98.0737C506.605 94.9144 507.476 91.2146 507.476 86.9744C507.476 82.6511 506.605 78.9514 504.863 75.8752C503.203 72.7158 500.88 70.3048 497.893 68.6419C494.906 66.9792 491.545 66.1478 487.811 66.1478C483.995 66.1478 480.592 66.9792 477.605 68.6419C474.702 70.3048 472.378 72.7158 470.636 75.8752C468.894 78.9514 468.023 82.6511 468.023 86.9744C468.023 91.2146 468.894 94.9144 470.636 98.0737C472.378 101.233 474.702 103.644 477.605 105.307C480.592 106.97 483.953 107.801 487.687 107.801ZM566.162 121.145C559.774 121.145 554.007 119.732 548.863 116.904C543.801 114.078 539.819 110.129 536.914 105.057C534.01 99.9028 532.558 93.875 532.558 86.9744C532.558 80.0738 534.01 74.0877 536.914 69.0161C539.819 63.9445 543.801 59.9954 548.863 57.1686C554.007 54.3418 559.774 52.9285 566.162 52.9285C571.888 52.9285 576.907 54.1755 581.223 56.6698C585.62 59.0809 589.063 62.7806 591.552 67.7691C594.125 72.7575 595.41 79.1593 595.41 86.9744C595.41 94.7064 594.083 101.108 591.427 106.18C588.856 111.168 585.371 114.91 580.973 117.404C576.576 119.897 571.639 121.145 566.162 121.145ZM567.905 107.801C571.639 107.801 574.999 106.97 577.986 105.307C580.973 103.644 583.338 101.233 585.081 98.0737C586.822 94.9144 587.694 91.2146 587.694 86.9744C587.694 82.6511 586.822 78.9514 585.081 75.8752C583.338 72.7158 580.973 70.3048 577.986 68.6419C574.999 66.9792 571.639 66.1478 567.905 66.1478C564.171 66.1478 560.811 66.9792 557.824 68.6419C554.92 70.3048 552.597 72.7158 550.854 75.8752C549.112 78.9514 548.241 82.6511 548.241 86.9744C548.241 91.2146 549.112 94.9144 550.854 98.0737C552.597 101.233 554.92 103.644 557.824 105.307C560.811 106.97 564.171 107.801 567.905 107.801ZM587.446 144.466V104.808L588.69 87.0991L588.192 69.3903V53.6767H603.002V144.466H587.446Z" fill="white"/>
</svg>
