<svg width="296" height="307" viewBox="0 0 296 307" fill="none" xmlns="http://www.w3.org/2000/svg">
<g clip-path="url(#clip0_8_217)">
<path d="M81.1391 226.213C73.2189 231.2 65.4152 228.291 62.5032 226.213C35.0153 201.276 10.0897 172.6 0.771733 161.379C-0.625962 153.4 0.189378 148.08 0.771751 146.418C37.5777 99.5384 59.7856 80.3377 66.5798 76.5973C70.3071 76.0986 74.3449 76.3895 75.8978 76.5973C85.7982 78.4675 90.4571 84.7015 95.6985 92.8057C99.8917 99.289 98.9987 107.975 98.028 111.507C81.7216 127.965 72.4036 140.807 69.4918 145.171C67.7447 153.275 69.4918 158.885 69.4918 159.509C69.4918 160.008 85.9922 180.289 94.5338 190.055C104.784 205.515 89.8747 220.601 81.1391 226.213Z" fill="#1CA4A9"/>
<path d="M187.562 150.142H275.248L152.488 20.0189H70.0631L187.562 145.137V150.142Z" fill="#1CA4A9"/>
<path d="M187.414 158.941L73.8165 285.27H153.452H154.038L275.248 150.142H187.414V158.941Z" fill="#0C3A47"/>
</g>
<defs>
<clipPath id="clip0_8_217">
<rect width="296" height="307" fill="white"/>
</clipPath>
</defs>
</svg>
