<svg width="532" height="147" viewBox="0 0 532 147" fill="none" xmlns="http://www.w3.org/2000/svg">
<path d="M38.8533 108.317C35.0607 110.705 31.3239 109.312 29.9295 108.317C16.767 96.3766 4.83144 82.6457 0.369543 77.2727C-0.29974 73.4519 0.0906833 70.9048 0.369552 70.1088C17.994 47.6617 28.6282 38.4679 31.8816 36.6769C33.6664 36.4381 35.5999 36.5774 36.3435 36.6769C41.0843 37.5724 43.3152 40.5574 45.825 44.4379C47.8329 47.5423 47.4053 51.7013 46.9405 53.3928C39.1322 61.2732 34.6703 67.4223 33.276 69.5118C32.4394 73.3922 33.276 76.0787 33.276 76.3772C33.276 76.616 41.1772 86.3272 45.2673 91.0037C50.1754 98.4064 43.0363 105.63 38.8533 108.317Z" fill="white"/>
<path d="M89.8137 71.8919H131.802L73.0184 9.58559H33.5496L89.8137 69.4955V71.8919Z" fill="white"/>
<path d="M89.743 76.1051L35.3469 136.595H73.4802H73.7606L131.802 71.8919H89.743V76.1051Z" fill="white"/>
<path d="M182.27 105.078C176.519 105.078 171.163 104.144 166.202 102.275C161.313 100.334 157.036 97.6376 153.369 94.1868C149.775 90.6641 146.971 86.5303 144.958 81.7854C142.945 77.0405 141.939 71.8643 141.939 66.2568C141.939 60.6492 142.945 55.473 144.958 50.7281C146.971 45.9832 149.811 41.8854 153.477 38.4346C157.144 34.9119 161.421 32.2159 166.31 30.3468C171.199 28.4057 176.555 27.4351 182.378 27.4351C188.56 27.4351 194.204 28.5135 199.308 30.6703C204.413 32.7551 208.726 35.8824 212.249 40.0522L203.19 48.5714C200.459 45.6238 197.403 43.4311 194.024 41.9932C190.645 40.4835 186.979 39.7286 183.025 39.7286C179.071 39.7286 175.44 40.3757 172.133 41.6697C168.898 42.9638 166.058 44.797 163.614 47.1695C161.242 49.5419 159.372 52.3457 158.006 55.5808C156.712 58.8159 156.065 62.3746 156.065 66.2568C156.065 70.1389 156.712 73.6976 158.006 76.9327C159.372 80.1678 161.242 82.9716 163.614 85.3441C166.058 87.7165 168.898 89.5497 172.133 90.8438C175.44 92.1378 179.071 92.7849 183.025 92.7849C186.979 92.7849 190.645 92.0659 194.024 90.6281C197.403 89.1184 200.459 86.8538 203.19 83.8343L212.249 92.4614C208.726 96.5592 204.413 99.6865 199.308 101.843C194.204 104 188.525 105.078 182.27 105.078ZM248.057 104.755C242.162 104.755 236.914 103.497 232.313 100.981C227.712 98.3924 224.081 94.8697 221.421 90.4124C218.761 85.9551 217.431 80.8868 217.431 75.2073C217.431 69.4559 218.761 64.3876 221.421 60.0022C224.081 55.5449 227.712 52.0581 232.313 49.5419C236.914 47.0257 242.162 45.7676 248.057 45.7676C254.024 45.7676 259.308 47.0257 263.909 49.5419C268.582 52.0581 272.213 55.5089 274.801 59.8943C277.461 64.2797 278.791 69.3841 278.791 75.2073C278.791 80.8868 277.461 85.9551 274.801 90.4124C272.213 94.8697 268.582 98.3924 263.909 100.981C259.308 103.497 254.024 104.755 248.057 104.755ZM248.057 93.2162C251.364 93.2162 254.312 92.4973 256.9 91.0595C259.488 89.6216 261.501 87.5368 262.939 84.8049C264.448 82.073 265.203 78.8738 265.203 75.2073C265.203 71.4689 264.448 68.2697 262.939 65.6097C261.501 62.8778 259.488 60.793 256.9 59.3551C254.312 57.9173 251.4 57.1984 248.165 57.1984C244.858 57.1984 241.91 57.9173 239.322 59.3551C236.806 60.793 234.793 62.8778 233.283 65.6097C231.773 68.2697 231.019 71.4689 231.019 75.2073C231.019 78.8738 231.773 82.073 233.283 84.8049C234.793 87.5368 236.806 89.6216 239.322 91.0595C241.91 92.4973 244.822 93.2162 248.057 93.2162ZM324.356 45.7676C328.957 45.7676 333.054 46.6662 336.649 48.4635C340.316 50.2608 343.191 53.0286 345.276 56.767C347.361 60.4335 348.403 65.1784 348.403 71.0016V104H334.924V72.727C334.924 67.6227 333.701 63.8124 331.257 61.2962C328.885 58.78 325.542 57.5219 321.228 57.5219C318.065 57.5219 315.261 58.1689 312.817 59.463C310.373 60.757 308.467 62.6981 307.101 65.2862C305.807 67.8024 305.16 71.0016 305.16 74.8838V104H291.681V46.4146H304.513V61.9432L302.249 57.1984C304.262 53.5319 307.173 50.7281 310.984 48.787C314.866 46.7741 319.323 45.7676 324.356 45.7676ZM365.503 104V23.9843H378.983V104H365.503ZM422.556 104.755C416.661 104.755 411.413 103.497 406.812 100.981C402.211 98.3924 398.58 94.8697 395.92 90.4124C393.26 85.9551 391.93 80.8868 391.93 75.2073C391.93 69.4559 393.26 64.3876 395.92 60.0022C398.58 55.5449 402.211 52.0581 406.812 49.5419C411.413 47.0257 416.661 45.7676 422.556 45.7676C428.523 45.7676 433.807 47.0257 438.408 49.5419C443.081 52.0581 446.712 55.5089 449.3 59.8943C451.96 64.2797 453.29 69.3841 453.29 75.2073C453.29 80.8868 451.96 85.9551 449.3 90.4124C446.712 94.8697 443.081 98.3924 438.408 100.981C433.807 103.497 428.523 104.755 422.556 104.755ZM422.556 93.2162C425.863 93.2162 428.811 92.4973 431.399 91.0595C433.987 89.6216 436 87.5368 437.438 84.8049C438.948 82.073 439.702 78.8738 439.702 75.2073C439.702 71.4689 438.948 68.2697 437.438 65.6097C436 62.8778 433.987 60.793 431.399 59.3551C428.811 57.9173 425.899 57.1984 422.664 57.1984C419.357 57.1984 416.409 57.9173 413.821 59.3551C411.305 60.793 409.292 62.8778 407.782 65.6097C406.273 68.2697 405.518 71.4689 405.518 75.2073C405.518 78.8738 406.273 82.073 407.782 84.8049C409.292 87.5368 411.305 89.6216 413.821 91.0595C416.409 92.4973 419.321 93.2162 422.556 93.2162ZM490.551 104.755C485.016 104.755 480.019 103.533 475.562 101.088C471.176 98.6441 467.726 95.2292 465.209 90.8438C462.693 86.3865 461.435 81.1743 461.435 75.2073C461.435 69.2403 462.693 64.0641 465.209 59.6786C467.726 55.2932 471.176 51.8784 475.562 49.434C480.019 46.9897 485.016 45.7676 490.551 45.7676C495.512 45.7676 499.861 46.8459 503.6 49.0027C507.41 51.0876 510.393 54.2868 512.55 58.6003C514.779 62.9138 515.893 68.4495 515.893 75.2073C515.893 81.8932 514.743 87.4289 512.442 91.8143C510.214 96.1278 507.194 99.363 503.384 101.52C499.574 103.676 495.296 104.755 490.551 104.755ZM492.061 93.2162C495.296 93.2162 498.208 92.4973 500.796 91.0595C503.384 89.6216 505.433 87.5368 506.943 84.8049C508.452 82.073 509.207 78.8738 509.207 75.2073C509.207 71.4689 508.452 68.2697 506.943 65.6097C505.433 62.8778 503.384 60.793 500.796 59.3551C498.208 57.9173 495.296 57.1984 492.061 57.1984C488.826 57.1984 485.914 57.9173 483.326 59.3551C480.81 60.793 478.797 62.8778 477.287 65.6097C475.778 68.2697 475.023 71.4689 475.023 75.2073C475.023 78.8738 475.778 82.073 477.287 84.8049C478.797 87.5368 480.81 89.6216 483.326 91.0595C485.914 92.4973 488.826 93.2162 492.061 93.2162ZM508.992 124.921V90.6281L510.07 75.3151L509.639 60.0022V46.4146H522.471V124.921H508.992Z" fill="white"/>
</svg>
