<svg width="614" height="170" viewBox="0 0 614 170" fill="none" xmlns="http://www.w3.org/2000/svg">
<g clip-path="url(#clip0_28_143)">
<path d="M44.842 125.265C40.4648 128.026 36.152 126.415 34.5427 125.265C19.3514 111.456 5.57612 95.5766 0.426494 89.363C-0.345949 84.9444 0.104653 81.9987 0.426505 81.0782C20.7675 55.119 33.0408 44.4867 36.7957 42.4155C38.8556 42.1393 41.0871 42.3004 41.9453 42.4155C47.4168 43.4511 49.9916 46.9031 52.8882 51.3908C55.2056 54.9809 54.7121 59.7906 54.1757 61.7468C45.1638 70.8602 40.0142 77.9714 38.405 80.3878C37.4395 84.8753 38.405 87.9822 38.405 88.3274C38.405 88.6035 47.5241 99.8342 52.2446 105.242C57.9092 113.803 49.6697 122.157 44.842 125.265Z" fill="white"/>
<path d="M103.657 83.1403H152.117L84.2731 11.0854H38.7208L103.657 80.3689V83.1403Z" fill="white"/>
<path d="M103.576 88.0127L40.7951 157.967H84.8061H85.1297L152.117 83.1403H103.576V88.0127Z" fill="white"/>
<path d="M210.364 121.519C203.727 121.519 197.545 120.439 191.82 118.277C186.177 116.033 181.241 112.914 177.009 108.924C172.861 104.85 169.624 100.069 167.301 94.5817C164.978 89.0944 163.817 83.1084 163.817 76.6235C163.817 70.1385 164.978 64.1524 167.301 58.6651C169.624 53.1778 172.902 48.4389 177.133 44.4482C181.365 40.3743 186.302 37.2565 191.944 35.0949C197.587 32.8501 203.768 31.7277 210.489 31.7277C217.624 31.7277 224.138 32.9748 230.028 35.469C235.92 37.88 240.898 41.4966 244.964 46.3189L234.509 56.171C231.357 52.7622 227.83 50.2264 223.93 48.5636C220.03 46.8176 215.799 45.9446 211.236 45.9446C206.672 45.9446 202.481 46.693 198.665 48.1894C194.931 49.686 191.653 51.806 188.833 54.5498C186.095 57.2933 183.937 60.5358 182.36 64.2771C180.867 68.0184 180.12 72.1339 180.12 76.6235C180.12 81.113 180.867 85.2285 182.36 88.9698C183.937 92.7111 186.095 95.9535 188.833 98.6973C191.653 101.441 194.931 103.561 198.665 105.057C202.481 106.554 206.672 107.302 211.236 107.302C215.799 107.302 220.03 106.471 223.93 104.808C227.83 103.062 231.357 100.443 234.509 96.9512L244.964 106.928C240.898 111.667 235.92 115.284 230.028 117.778C224.138 120.272 217.583 121.519 210.364 121.519ZM286.291 121.145C279.488 121.145 273.431 119.69 268.121 116.781C262.81 113.787 258.62 109.713 255.55 104.559C252.48 99.4038 250.945 93.5425 250.945 86.9744C250.945 80.3231 252.48 74.4618 255.55 69.3903C258.62 64.2356 262.81 60.2032 268.121 57.2933C273.431 54.3835 279.488 52.9285 286.291 52.9285C293.178 52.9285 299.277 54.3835 304.587 57.2933C309.98 60.2032 314.171 64.194 317.158 69.2655C320.228 74.3371 321.763 80.2401 321.763 86.9744C321.763 93.5425 320.228 99.4038 317.158 104.559C314.171 109.713 309.98 113.787 304.587 116.781C299.277 119.69 293.178 121.145 286.291 121.145ZM286.291 107.801C290.108 107.801 293.51 106.97 296.497 105.307C299.484 103.644 301.808 101.233 303.467 98.0737C305.209 94.9143 306.08 91.2146 306.08 86.9744C306.08 82.6511 305.209 78.9514 303.467 75.8752C301.808 72.7158 299.484 70.3048 296.497 68.6419C293.51 66.9792 290.15 66.1478 286.416 66.1478C282.599 66.1478 279.197 66.9792 276.21 68.6419C273.306 70.3048 270.983 72.7158 269.24 75.8752C267.497 78.9514 266.627 82.6511 266.627 86.9744C266.627 91.2146 267.497 94.9143 269.24 98.0737C270.983 101.233 273.306 103.644 276.21 105.307C279.197 106.97 282.558 107.801 286.291 107.801ZM374.351 52.9285C379.661 52.9285 384.389 53.9677 388.538 56.0462C392.771 58.1247 396.089 61.3256 398.495 65.6489C400.902 69.8891 402.104 75.3764 402.104 82.1107V120.272H386.548V84.106C386.548 78.2031 385.136 73.7966 382.315 70.8867C379.578 67.9769 375.72 66.5219 370.741 66.5219C367.09 66.5219 363.854 67.2701 361.033 68.7667C358.212 70.2632 356.013 72.508 354.436 75.501C352.943 78.4109 352.196 82.1107 352.196 86.6003V120.272H336.639V53.6767H351.449V71.635L348.836 66.1478C351.16 61.9076 354.519 58.6651 358.918 56.4203C363.398 54.0925 368.542 52.9285 374.351 52.9285ZM421.84 120.272V27.7369H437.398V120.272H421.84ZM487.687 121.145C480.883 121.145 474.826 119.69 469.516 116.781C464.206 113.787 460.015 109.713 456.945 104.559C453.875 99.4038 452.34 93.5425 452.34 86.9744C452.34 80.3231 453.875 74.4618 456.945 69.3903C460.015 64.2356 464.206 60.2032 469.516 57.2933C474.826 54.3835 480.883 52.9285 487.687 52.9285C494.574 52.9285 500.672 54.3835 505.982 57.2933C511.375 60.2032 515.566 64.194 518.553 69.2655C521.623 74.3371 523.158 80.2401 523.158 86.9744C523.158 93.5425 521.623 99.4038 518.553 104.559C515.566 109.713 511.375 113.787 505.982 116.781C500.672 119.69 494.574 121.145 487.687 121.145ZM487.687 107.801C491.504 107.801 494.906 106.97 497.893 105.307C500.88 103.644 503.203 101.233 504.863 98.0737C506.605 94.9143 507.476 91.2146 507.476 86.9744C507.476 82.6511 506.605 78.9514 504.863 75.8752C503.203 72.7158 500.88 70.3048 497.893 68.6419C494.906 66.9792 491.545 66.1478 487.811 66.1478C483.995 66.1478 480.592 66.9792 477.605 68.6419C474.702 70.3048 472.378 72.7158 470.636 75.8752C468.894 78.9514 468.023 82.6511 468.023 86.9744C468.023 91.2146 468.894 94.9143 470.636 98.0737C472.378 101.233 474.702 103.644 477.605 105.307C480.592 106.97 483.953 107.801 487.687 107.801ZM566.162 121.145C559.774 121.145 554.007 119.732 548.863 116.904C543.801 114.078 539.819 110.129 536.914 105.057C534.01 99.9027 532.558 93.875 532.558 86.9744C532.558 80.0738 534.01 74.0877 536.914 69.0161C539.819 63.9445 543.801 59.9954 548.863 57.1686C554.007 54.3418 559.774 52.9285 566.162 52.9285C571.888 52.9285 576.907 54.1755 581.223 56.6698C585.62 59.0809 589.063 62.7806 591.552 67.769C594.125 72.7574 595.41 79.1593 595.41 86.9744C595.41 94.7064 594.083 101.108 591.427 106.18C588.856 111.168 585.371 114.91 580.973 117.404C576.576 119.897 571.639 121.145 566.162 121.145ZM567.905 107.801C571.639 107.801 574.999 106.97 577.986 105.307C580.973 103.644 583.338 101.233 585.081 98.0737C586.822 94.9143 587.694 91.2146 587.694 86.9744C587.694 82.6511 586.822 78.9514 585.081 75.8752C583.338 72.7158 580.973 70.3048 577.986 68.6419C574.999 66.9792 571.639 66.1478 567.905 66.1478C564.171 66.1478 560.811 66.9792 557.824 68.6419C554.92 70.3048 552.597 72.7158 550.854 75.8752C549.112 78.9514 548.241 82.6511 548.241 86.9744C548.241 91.2146 549.112 94.9143 550.854 98.0737C552.597 101.233 554.92 103.644 557.824 105.307C560.811 106.97 564.171 107.801 567.905 107.801ZM587.446 144.466V104.808L588.69 87.0991L588.192 69.3903V53.6767H603.002V144.466H587.446Z" fill="white"/>
</g>
<defs>
<clipPath id="clip0_28_143">
<rect width="614" height="170" fill="white"/>
</clipPath>
</defs>
</svg>
