<svg width="150" height="35" viewBox="0 0 150 35" fill="none" xmlns="http://www.w3.org/2000/svg">
<g clip-path="url(#clip0_65_153)">
<path d="M17.4175 0C7.8975 0 0.148419 7.77981 0.14438 17.3419C0.143371 20.3984 0.938977 23.382 2.45043 26.0118L0 35L9.15654 32.5882C11.6797 33.97 14.5198 34.6979 17.4104 34.6989H17.4175C26.9365 34.6989 34.6856 26.9181 34.6896 17.356C34.6917 12.722 32.8965 8.36476 29.6353 5.08719C26.3741 1.8086 22.0377 0.00202757 17.4175 0ZM17.4175 31.7701H17.4115C14.8358 31.7701 12.3087 31.0736 10.1046 29.7607L9.58059 29.4485L4.14765 30.88L5.59751 25.5606L5.25625 25.0152C3.81951 22.72 3.06026 20.0669 3.06127 17.3439C3.06429 9.39578 9.50487 2.92985 17.4236 2.92985C21.2582 2.93086 24.8627 4.43228 27.5726 7.15734C30.2835 9.88139 31.7748 13.5036 31.7738 17.355C31.7707 25.3031 25.3302 31.7701 17.4175 31.7701ZM25.2918 20.9743C24.8607 20.7573 22.7384 19.709 22.3426 19.5641C21.9468 19.4191 21.6591 19.3471 21.3713 19.781C21.0836 20.2149 20.2567 21.1912 20.0052 21.4801C19.7538 21.7701 19.5014 21.8056 19.0703 21.5886C18.6392 21.3717 17.2479 20.9134 15.6001 19.4373C14.3169 18.2887 13.4506 16.8694 13.1992 16.4355C12.9478 16.0016 13.1719 15.7674 13.389 15.5515C13.5829 15.3579 13.8201 15.0456 14.0362 14.7922C14.2523 14.5387 14.3239 14.3583 14.4673 14.0683C14.6107 13.7794 14.539 13.526 14.431 13.309C14.3229 13.0921 13.4597 10.959 13.1002 10.0912C12.7499 9.24676 12.3945 9.3603 12.129 9.34712C11.8775 9.33394 11.5898 9.33191 11.302 9.33191C11.0143 9.33191 10.5468 9.44039 10.151 9.87429C9.75526 10.3082 8.6406 11.3564 8.6406 13.4895C8.6406 15.6225 10.1874 17.6835 10.4024 17.9724C10.6185 18.2614 13.4455 22.6389 17.7749 24.5154C18.8048 24.9615 19.6085 25.2281 20.2355 25.4278C21.2693 25.7573 22.2103 25.7107 22.9534 25.5991C23.7824 25.4745 25.5068 24.5509 25.8663 23.5381C26.2257 22.5264 26.2257 21.6586 26.1177 21.4771C26.0097 21.2966 25.7219 21.1882 25.2908 20.9712L25.2918 20.9743ZM55.8479 20.7097H55.8015L52.9381 9.10989H49.4871L46.5763 20.5677H46.5298L43.8775 9.10989H40.1922L44.6286 25.9438H48.3613L51.154 14.485H51.2015L54.0416 25.9438H57.7036L62.2107 9.10989H58.5962L55.8489 20.7097H55.8479ZM73.4532 14.8033C73.1251 14.3715 72.6748 14.0339 72.1043 13.7895C71.5329 13.5472 70.8008 13.4256 69.9093 13.4256C69.2833 13.4256 68.6422 13.5858 67.9839 13.9092C67.3266 14.2305 66.7875 14.7455 66.3644 15.4532H66.2938V9.10989H62.9609V25.9428H66.2938V19.5539C66.2938 18.312 66.4967 17.4209 66.9046 16.8775C67.3115 16.3362 67.9688 16.0645 68.8765 16.0645C69.6741 16.0645 70.2294 16.3118 70.5434 16.8076C70.8564 17.3023 71.0129 18.0525 71.0129 19.0582V25.9428H74.3467V18.4459C74.3467 17.6916 74.2791 17.0043 74.1468 16.3828C74.0136 15.7634 73.7834 15.2362 73.4542 14.8033H73.4532ZM87.1855 23.232V16.8907C87.1855 16.1507 87.0219 15.5576 86.6918 15.1105C86.3636 14.6624 85.9416 14.3127 85.4257 14.0612C84.9087 13.8098 84.3373 13.6405 83.7113 13.5543C83.0853 13.4682 82.4674 13.4246 81.8576 13.4246C81.1851 13.4246 80.5157 13.4905 79.8514 13.6253C79.185 13.7591 78.5873 13.9832 78.0552 14.2974C77.5231 14.6117 77.0839 15.0284 76.7416 15.5464C76.3963 16.0655 76.2005 16.7174 76.154 17.5041H79.4869C79.5495 16.8441 79.7696 16.3717 80.1452 16.0888C80.5208 15.806 81.0367 15.665 81.694 15.665C81.9908 15.665 82.2685 15.6843 82.527 15.7238C82.7844 15.7634 83.0116 15.8404 83.2075 15.959C83.4033 16.0766 83.5598 16.2419 83.6769 16.4548C83.7941 16.6667 83.8526 16.9546 83.8526 17.3145C83.8678 17.6612 83.7658 17.9228 83.5477 18.1042C83.3276 18.2857 83.0308 18.4236 82.6552 18.5168C82.2796 18.6121 81.8495 18.6831 81.3638 18.7287C80.8782 18.7774 80.3855 18.8412 79.8857 18.9183C79.3839 18.9974 78.8872 19.1028 78.3955 19.2366C77.9027 19.3694 77.4625 19.5712 77.0799 19.8368C76.6962 20.1054 76.3832 20.4623 76.1399 20.9104C75.8976 21.3585 75.7764 21.9292 75.7764 22.6196C75.7764 23.2482 75.8824 23.7906 76.0934 24.2457C76.3045 24.703 76.5983 25.0791 76.9739 25.3781C77.3495 25.6772 77.7877 25.8972 78.2884 26.0391C78.7882 26.18 79.3294 26.251 79.9079 26.251C80.6591 26.251 81.3951 26.1405 82.114 25.9215C82.8339 25.6995 83.4609 25.3163 83.993 24.7648C84.0081 24.9696 84.0354 25.1703 84.0748 25.366C84.1141 25.5616 84.1646 25.7553 84.2272 25.9428H87.6075C87.451 25.6924 87.341 25.3153 87.2784 24.8114C87.2148 24.3086 87.1835 23.7835 87.1835 23.232H87.1855ZM83.8526 21.2277C83.8526 21.4183 83.8334 21.6697 83.7941 21.983C83.7557 22.2983 83.6497 22.6075 83.477 22.9146C83.3044 23.2208 83.0378 23.4854 82.6784 23.7044C82.319 23.9254 81.8101 24.0349 81.1518 24.0349C80.8863 24.0349 80.6278 24.0116 80.3774 23.9629C80.127 23.9163 79.9079 23.8331 79.7201 23.7155C79.5323 23.5979 79.3839 23.4367 79.2738 23.232C79.1648 23.0272 79.1093 22.7768 79.1093 22.4787C79.1093 22.1644 79.1648 21.9039 79.2738 21.7001C79.3839 21.4964 79.5283 21.327 79.709 21.1932C79.8877 21.0594 80.0997 20.954 80.3421 20.8749C80.5844 20.7968 80.8307 20.734 81.0821 20.6863C81.3477 20.6397 81.6142 20.5991 81.8798 20.5687C82.1473 20.5383 82.4007 20.4978 82.6431 20.4511C82.8864 20.4035 83.1126 20.3447 83.3246 20.2737C83.5356 20.2028 83.7113 20.1064 83.8526 19.9797V21.2287V21.2277ZM93.407 10.1004H90.0731V13.7541H88.0548V15.9935H90.0731V23.1853C90.0731 23.7987 90.1761 24.2934 90.379 24.6705C90.583 25.0476 90.8606 25.3396 91.212 25.5434C91.5644 25.7482 91.9712 25.885 92.4337 25.955C92.8941 26.0249 93.3848 26.0614 93.9007 26.0614C94.2309 26.0614 94.566 26.0533 94.9113 26.0391C95.2546 26.0229 95.5676 25.9925 95.8503 25.9438V23.3506C95.6928 23.382 95.5293 23.4073 95.3566 23.4215C95.185 23.4378 95.0052 23.4459 94.8175 23.4459C94.2551 23.4459 93.8785 23.3506 93.6907 23.162C93.5039 22.9734 93.41 22.5963 93.41 22.0296V15.9935H95.8513V13.7541H93.41V10.1004H93.407ZM107.185 20.6042C106.966 20.219 106.676 19.8966 106.316 19.6371C105.957 19.3785 105.545 19.1697 105.085 19.0116C104.622 18.8554 104.149 18.7226 103.664 18.6121C103.195 18.5016 102.734 18.3992 102.28 18.3049C101.825 18.2107 101.423 18.1042 101.07 17.9876C100.719 17.869 100.434 17.717 100.215 17.5274C99.9949 17.3388 99.8869 17.0965 99.8869 16.7964C99.8869 16.545 99.9475 16.3443 100.074 16.1953C100.199 16.0462 100.352 15.9327 100.532 15.8526C100.713 15.7745 100.911 15.7238 101.13 15.6995C101.349 15.6762 101.553 15.665 101.74 15.665C102.334 15.665 102.851 15.7786 103.29 16.0067C103.728 16.2348 103.971 16.6707 104.016 17.3145H107.186C107.123 16.5602 106.931 15.9357 106.611 15.44C106.291 14.9453 105.887 14.5489 105.403 14.2498C104.918 13.9507 104.367 13.7388 103.747 13.6131C103.129 13.4874 102.492 13.4246 101.836 13.4246C101.179 13.4246 100.535 13.4834 99.9111 13.6C99.2841 13.7186 98.7208 13.9234 98.221 14.2143C97.7192 14.5053 97.3174 14.9017 97.0114 15.4045C96.7055 15.9073 96.553 16.5521 96.553 17.3378C96.553 17.8721 96.6631 18.3252 96.8832 18.6942C97.1003 19.0643 97.3911 19.3694 97.7495 19.6137C98.1109 19.8571 98.5219 20.0547 98.9833 20.2028C99.4447 20.3538 99.9182 20.4826 100.403 20.5931C101.593 20.8445 102.521 21.0959 103.185 21.3483C103.851 21.5998 104.183 21.9769 104.183 22.4797C104.183 22.7788 104.113 23.0241 103.972 23.2208C103.831 23.4185 103.655 23.5746 103.444 23.6922C103.232 23.8108 102.997 23.898 102.739 23.9517C102.481 24.0075 102.233 24.0349 101.999 24.0349C101.67 24.0349 101.354 23.9953 101.049 23.9173C100.743 23.8382 100.474 23.7165 100.238 23.5513C100.004 23.3861 99.8112 23.1742 99.6628 22.9146C99.5154 22.6551 99.4396 22.3459 99.4396 21.983H96.2714C96.3037 22.8001 96.4864 23.4803 96.8236 24.0227C97.1588 24.5651 97.589 25.001 98.114 25.3315C98.638 25.661 99.2377 25.8972 99.9111 26.0391C100.583 26.18 101.271 26.251 101.975 26.251C102.679 26.251 103.341 26.1841 104.006 26.0513C104.672 25.9175 105.262 25.6853 105.778 25.3548C106.296 25.0253 106.712 24.5894 107.034 24.047C107.354 23.5037 107.515 22.8325 107.515 22.0306C107.515 21.4639 107.406 20.9895 107.187 20.6052L107.185 20.6042ZM113.804 9.10989L107.466 25.9438H111.175L112.488 22.1948H118.756L120.022 25.9438H123.85L117.583 9.10989H113.803H113.804ZM113.453 19.4373L115.635 13.2603H115.682L117.795 19.4373H113.453ZM135.376 15.4055C134.923 14.8084 134.351 14.3289 133.663 13.968C132.974 13.606 132.153 13.4256 131.199 13.4256C130.447 13.4256 129.759 13.5746 129.134 13.8727C128.506 14.1717 127.991 14.6513 127.585 15.3112H127.537V13.7541H124.367V30.2119H127.703V24.4353H127.748C128.155 25.0335 128.676 25.4846 129.311 25.7897C129.943 26.0959 130.637 26.25 131.388 26.25C132.281 26.25 133.059 26.0756 133.723 25.7309C134.389 25.3852 134.944 24.9209 135.39 24.339C135.837 23.7571 136.168 23.09 136.389 22.3358C136.606 21.5805 136.717 20.7948 136.717 19.9777C136.717 19.1129 136.606 18.2847 136.389 17.4899C136.168 16.6971 135.833 16.0006 135.378 15.4035L135.376 15.4055ZM133.241 21.323C133.146 21.7954 132.985 22.207 132.759 22.5608C132.532 22.9146 132.235 23.2026 131.866 23.4215C131.499 23.6415 131.041 23.753 130.494 23.753C129.946 23.753 129.509 23.6425 129.134 23.4215C128.758 23.2026 128.456 22.9146 128.229 22.5608C128.002 22.207 127.838 21.7954 127.736 21.323C127.634 20.8516 127.585 20.3721 127.585 19.8865C127.585 19.4009 127.63 18.895 127.724 18.4246C127.819 17.9532 127.978 17.5365 128.207 17.1736C128.432 16.8127 128.731 16.5187 129.099 16.2906C129.467 16.0625 129.923 15.9469 130.471 15.9469C131.02 15.9469 131.455 16.0625 131.821 16.2906C132.189 16.5176 132.491 16.8157 132.725 17.1857C132.959 17.5558 133.127 17.9765 133.23 18.4469C133.333 18.9183 133.381 19.3988 133.381 19.8865C133.381 20.3741 133.336 20.8526 133.242 21.323H133.241ZM149.671 17.4919C149.452 16.6991 149.116 16.0026 148.661 15.4055C148.207 14.8084 147.637 14.3289 146.949 13.968C146.259 13.606 145.437 13.4256 144.483 13.4256C143.733 13.4256 143.043 13.5746 142.419 13.8727C141.793 14.1717 141.276 14.6513 140.869 15.3112H140.823V13.7541H137.654V30.2119H140.987V24.4353H141.034C141.441 25.0335 141.962 25.4846 142.595 25.7897C143.228 26.0959 143.922 26.25 144.673 26.25C145.565 26.25 146.342 26.0756 147.008 25.7309C147.673 25.3852 148.229 24.9209 148.674 24.339C149.122 23.7571 149.453 23.09 149.672 22.3358C149.892 21.5805 150.001 20.7948 150.001 19.9777C150.001 19.1129 149.892 18.2847 149.672 17.4899L149.671 17.4919ZM146.525 21.323C146.432 21.7954 146.271 22.207 146.044 22.5608C145.816 22.9146 145.519 23.2026 145.152 23.4215C144.784 23.6415 144.327 23.753 143.779 23.753C143.23 23.753 142.792 23.6425 142.417 23.4215C142.04 23.2026 141.74 22.9146 141.512 22.5608C141.286 22.207 141.121 21.7954 141.019 21.323C140.917 20.8516 140.867 20.3721 140.867 19.8865C140.867 19.4009 140.914 18.895 141.008 18.4246C141.102 17.9532 141.262 17.5365 141.49 17.1736C141.716 16.8127 142.014 16.5187 142.382 16.2906C142.749 16.0625 143.207 15.9469 143.755 15.9469C144.304 15.9469 144.737 16.0625 145.104 16.2906C145.473 16.5176 145.774 16.8157 146.009 17.1857C146.244 17.5558 146.413 17.9765 146.514 18.4469C146.617 18.9183 146.666 19.3988 146.666 19.8865C146.666 20.3741 146.619 20.8526 146.525 21.323Z" fill="#111B21"/>
</g>
<defs>
<clipPath id="clip0_65_153">
<rect width="150" height="35" fill="white"/>
</clipPath>
</defs>
</svg>
